<?xml version="1.0" standalone="no"?>
<!DOCTYPE svg PUBLIC "-//W3C//DTD SVG 20010904//EN"
 "http://www.w3.org/TR/2001/REC-SVG-20010904/DTD/svg10.dtd">
<svg version="1.0" xmlns="http://www.w3.org/2000/svg"
 width="1362.000000pt" height="758.000000pt" viewBox="0 0 1362.000000 758.000000"
 preserveAspectRatio="xMidYMid meet">

<g transform="translate(0.000000,758.000000) scale(0.100000,-0.100000)"
fill="#000000" stroke="none">
<path d="M22 5987 l3 -1592 52 0 c59 0 76 -11 50 -30 -18 -13 -18 -14 -1 -23
15 -9 16 -12 5 -26 -12 -14 -11 -19 4 -30 18 -13 18 -14 -1 -24 -19 -11 -19
-11 0 -25 19 -14 19 -14 0 -26 -18 -11 -18 -11 -1 -22 17 -10 18 -12 1 -30
-16 -17 -16 -19 0 -25 11 -4 15 -13 11 -25 -4 -11 -2 -19 3 -19 17 0 22 40 24
185 l2 140 6 -150 c7 -189 12 -202 89 -210 81 -9 84 -11 76 -43 -4 -15 -8 -41
-9 -59 -1 -17 -5 -35 -9 -39 -10 -10 -9 -34 2 -34 5 0 13 10 17 23 4 12 14 33
23 46 9 14 16 32 16 40 0 12 12 17 47 19 35 2 52 9 63 25 15 21 15 21 15 -6 0
-15 5 -27 10 -27 6 0 10 -7 10 -15 0 -11 39 -43 40 -33 1 2 4 38 7 81 5 74 4
79 -16 84 -27 7 -27 19 -1 26 27 7 25 35 -2 47 -14 5 -17 9 -7 9 38 2 46 51 8
51 -10 0 -19 7 -19 15 0 8 7 15 15 15 23 0 18 16 -5 17 -15 1 -20 -4 -20 -23
0 -13 -4 -24 -10 -24 -15 0 -12 -47 3 -53 9 -4 9 -6 0 -6 -17 -1 -17 -48 -1
-53 9 -3 8 -9 -4 -21 -9 -9 -24 -14 -32 -11 -18 7 -21 30 -6 39 6 3 7 17 4 31
-4 14 -1 31 6 39 19 23 -12 65 -42 58 -38 -10 -49 -23 -37 -44 13 -26 14 -118
1 -131 -6 -6 -18 -7 -29 -2 -10 4 -25 9 -33 9 -34 4 -60 18 -60 32 0 11 6 13
20 9 11 -3 28 -9 39 -12 16 -5 19 2 25 70 4 41 13 88 21 103 10 19 11 31 3 40
-5 7 -8 19 -5 27 3 8 3 17 0 20 -3 3 -7 19 -8 35 -3 35 10 39 105 34 36 -2 84
-3 108 -3 41 1 57 -15 27 -27 -13 -5 -13 -8 4 -20 16 -11 20 -24 20 -56 -1
-23 -6 -48 -12 -55 -7 -9 -7 -16 1 -24 9 -9 8 -16 -5 -30 -12 -14 -13 -21 -4
-32 7 -9 10 -24 6 -37 -4 -13 -2 -24 5 -29 8 -5 9 -13 2 -26 -12 -24 -7 -87 7
-92 6 -2 8 -14 5 -28 -5 -20 -2 -24 16 -24 16 0 21 5 18 22 -2 11 2 23 8 25
15 5 23 -47 16 -103 -4 -41 -6 -43 -32 -37 -34 6 -51 -14 -26 -32 9 -7 14 -19
10 -29 -4 -11 -1 -16 11 -16 12 0 15 5 11 16 -8 21 1 34 20 27 9 -3 12 -12 9
-23 -9 -27 10 -33 107 -37 99 -4 103 1 74 70 -16 38 -10 96 11 104 11 5 13 17
7 57 -4 28 -7 57 -7 64 0 8 -11 18 -24 23 -30 11 -29 15 7 34 23 12 30 22 28
43 -4 65 2 94 18 88 11 -4 19 3 27 23 l11 29 18 -22 18 -21 6 23 c5 19 13 22
51 22 37 0 44 -3 39 -16 -3 -9 -6 -18 -6 -20 0 -2 -7 -4 -16 -4 -8 0 -12 -5
-8 -11 9 -15 -14 -29 -47 -29 -33 0 -41 -8 -29 -30 5 -10 6 -21 2 -25 -4 -3
-7 -21 -8 -38 0 -18 -2 -63 -3 -102 -2 -38 -1 -77 2 -85 3 -8 7 -24 9 -35 5
-31 43 -26 43 5 0 22 6 26 40 30 40 5 40 5 42 50 1 29 8 49 19 57 10 7 13 13
7 13 -7 0 -11 21 -11 53 1 67 -10 117 -25 117 -8 0 -7 4 2 9 8 5 12 19 9 35
-3 14 -1 26 5 26 5 0 7 11 4 25 -5 29 14 44 60 47 18 0 12 3 -17 7 -32 4 -46
11 -48 24 -3 14 4 17 40 18 24 1 57 5 73 8 25 6 19 9 -37 15 -45 6 -68 13 -68
21 0 10 28 15 100 21 56 3 98 9 95 12 -6 7 -16 7 -122 10 -54 2 -73 6 -73 16
0 13 84 26 173 26 20 0 37 4 37 9 0 5 -45 11 -99 13 -55 1 -103 6 -107 11 -19
19 22 27 144 29 l132 2 0 38 c0 32 -3 38 -20 38 -12 0 -24 -9 -29 -22 -9 -23
-9 -22 -21 7 -8 22 -9 35 -1 47 6 10 12 28 12 40 1 18 3 16 8 -7 5 -23 12 -31
33 -33 28 -3 30 1 41 143 2 22 5 6 6 -35 1 -41 9 -142 17 -225 8 -82 15 -159
14 -170 0 -11 0 -76 0 -143 0 -68 -5 -132 -10 -142 -6 -11 -6 -75 -2 -165 7
-127 11 -149 27 -161 21 -16 69 -19 60 -5 -3 6 8 8 29 4 33 -5 57 9 36 22 -5
3 -10 24 -10 46 0 49 26 79 64 72 24 -5 30 -16 29 -51 -1 -8 5 -21 13 -30 7
-10 20 -26 28 -37 20 -28 31 -12 32 46 2 73 3 79 14 79 6 0 10 -15 10 -34 0
-63 52 -75 65 -15 l7 33 14 -26 c7 -14 19 -28 26 -30 24 -9 87 4 101 21 17 19
47 167 47 229 0 23 5 42 10 42 6 0 10 27 10 61 0 37 4 58 10 54 6 -3 10 -37
10 -74 0 -63 23 -260 36 -306 17 -60 38 -105 50 -105 17 0 18 22 3 37 -7 7 -2
17 17 32 l28 22 22 -28 22 -28 6 25 c3 14 7 36 9 50 3 20 5 18 6 -8 1 -32 2
-33 34 -27 17 4 34 9 37 12 3 3 5 84 5 181 0 176 0 176 -23 182 -30 7 -33 24
-5 28 39 6 41 52 2 52 -12 0 -19 5 -16 13 2 6 9 11 15 10 16 -4 35 25 28 42
-3 8 -15 15 -26 15 -27 0 -26 18 3 22 16 2 22 10 22 28 0 18 -6 26 -22 28 -13
2 -23 8 -23 14 0 5 6 8 14 5 24 -9 32 14 30 91 0 40 3 75 8 78 4 3 8 23 8 45
0 25 4 38 10 34 6 -4 8 -21 4 -41 -5 -30 -3 -35 21 -44 26 -10 26 -30 -1 -30
-19 0 -18 -16 1 -24 17 -6 21 -71 4 -81 -6 -5 -4 -12 8 -21 17 -13 17 -15 -5
-32 -20 -15 -21 -20 -9 -30 26 -22 61 -19 72 6 5 12 14 21 20 19 10 -4 26 -81
26 -129 0 -16 4 -28 9 -28 6 0 10 10 10 23 0 34 20 51 36 29 8 -9 14 -26 14
-37 1 -34 16 -51 33 -36 10 8 17 9 22 1 3 -5 15 -10 26 -10 10 0 19 -4 19 -10
0 -5 -9 -10 -19 -10 -30 0 -37 -22 -13 -38 30 -20 27 -32 -8 -32 -28 0 -30 3
-28 31 4 41 -19 50 -28 12 -4 -15 -10 -33 -15 -38 -4 -6 -6 -42 -5 -80 1 -39
-2 -76 -7 -83 -6 -8 -6 -21 0 -35 5 -12 8 -49 7 -82 -1 -33 2 -65 8 -72 13
-15 75 -14 88 2 15 18 1 45 -21 45 -23 0 -25 15 -4 24 21 8 19 33 -4 45 -15 9
-18 20 -15 78 2 37 -1 72 -6 78 -5 6 -3 17 5 28 8 12 15 14 20 8 3 -6 27 -11
53 -11 26 0 58 -3 70 -7 37 -9 6 -23 -54 -23 -34 0 -56 -5 -64 -15 -7 -9 -11
-17 -9 -19 12 -10 72 -24 83 -20 8 3 17 0 22 -7 4 -8 3 -10 -4 -5 -15 9 -52
-11 -52 -27 0 -7 9 -18 20 -25 12 -7 18 -17 15 -22 -7 -11 12 -51 29 -62 6 -4
17 -6 23 -3 7 2 23 0 35 -5 19 -7 16 -9 -20 -9 -28 -1 -45 -6 -48 -16 -7 -17
13 -46 30 -44 33 4 56 -3 56 -16 0 -8 -6 -15 -14 -15 -9 0 -16 -12 -18 -27 -2
-22 -8 -28 -28 -29 -43 -2 -45 -4 -25 -17 17 -12 42 -14 91 -8 6 0 25 13 42
29 30 27 30 28 28 116 -2 70 -6 91 -19 101 -15 11 -16 14 -2 25 22 19 18 37
-10 44 -31 8 -23 26 11 26 14 0 35 5 47 11 32 18 60 16 80 -4 17 -17 18 -19 2
-31 -14 -10 -15 -16 -6 -34 6 -12 16 -22 21 -22 6 0 10 -15 10 -34 0 -25 5
-35 20 -39 11 -3 27 1 35 10 18 18 19 25 3 42 -11 10 -7 17 15 37 16 14 27 31
24 38 -3 8 -1 18 5 24 16 16 -1 102 -21 102 -9 0 -29 7 -45 15 -15 8 -37 15
-48 15 -10 0 -16 4 -13 10 3 6 15 10 26 10 15 0 19 7 19 34 0 31 3 34 35 40
29 6 35 11 35 31 0 17 -6 25 -17 25 -17 1 -17 1 0 11 9 5 17 21 17 34 0 24
-11 29 -57 28 -7 -1 -13 3 -13 8 0 5 15 9 34 9 28 0 34 4 38 25 5 21 1 25 -28
31 -37 7 -47 24 -14 24 26 0 26 20 0 27 -11 3 -20 9 -20 14 0 5 -7 6 -16 2
-13 -5 -15 1 -9 41 6 39 5 46 -9 46 -10 0 -16 9 -16 25 0 19 -9 29 -35 42 -27
13 -32 19 -21 25 12 7 11 12 -8 33 -13 14 -30 25 -39 25 -25 0 -31 21 -8 27
23 6 29 33 7 33 -7 0 -19 6 -25 14 -9 11 -5 16 18 26 16 6 32 18 35 26 7 18
46 19 46 1 0 -7 -6 -19 -12 -27 -10 -11 -8 -11 11 1 28 18 58 96 42 112 -6 6
-11 25 -11 42 -1 49 -20 70 -65 71 -28 0 -41 5 -43 16 -2 12 5 16 32 16 19 0
47 3 64 6 23 6 34 2 53 -19 28 -30 79 -60 79 -46 0 5 17 11 37 13 43 3 38 -14
47 181 2 49 7 91 10 94 3 4 -1 17 -10 31 -15 22 -14 24 3 20 16 -3 19 -18 24
-121 4 -65 9 -120 12 -123 2 -2 27 26 54 63 57 78 196 229 226 245 12 6 -21
-36 -72 -93 -126 -141 -213 -272 -209 -313 3 -26 7 -31 28 -28 14 1 32 12 40
24 8 13 41 58 73 101 l57 78 -27 23 -28 24 45 48 c24 27 73 74 108 106 57 51
69 58 106 58 41 0 101 25 186 78 47 29 52 28 72 -16 10 -21 23 -46 31 -56 12
-17 14 -17 50 0 20 10 37 21 37 25 0 18 -42 99 -52 99 -6 0 -9 3 -5 6 3 3 -3
22 -13 42 -12 22 -16 40 -10 47 14 17 62 16 82 -2 10 -9 18 -11 18 -5 0 13 55
44 63 36 3 -3 24 1 47 9 47 16 187 14 204 -3 6 -6 18 -10 29 -10 29 0 108 -50
119 -76 11 -23 16 -24 115 -24 56 0 106 0 111 0 4 -1 9 13 12 30 7 42 18 42
40 1 l17 -34 7 56 c6 44 11 57 24 57 49 -1 299 -76 288 -87 -3 -3 -24 2 -48
10 -69 24 -150 46 -195 53 l-42 6 -6 -38 c-4 -22 -7 -45 -8 -53 -1 -9 26 -21
88 -37 100 -25 165 -50 165 -63 0 -4 29 -20 64 -35 102 -44 264 -155 356 -246
47 -45 72 -72 55 -59 -16 13 -39 33 -50 45 -70 72 -213 173 -320 226 -108 54
-111 55 -125 13 -10 -30 -15 -34 -35 -29 -22 5 -24 2 -28 -38 l-4 -43 -1 47
c-2 51 -5 53 -110 74 l-33 7 7 -43 c7 -42 6 -43 -17 -37 -13 3 -46 9 -72 12
l-48 7 7 44 6 44 -66 0 c-70 0 -79 -7 -51 -44 24 -31 18 -36 -37 -36 -67 0
-162 -15 -258 -41 l-75 -20 -3 -70 c-3 -52 2 -87 19 -136 13 -40 18 -68 12
-70 -6 -2 -18 -10 -28 -17 -16 -12 -15 -19 26 -114 42 -101 59 -118 86 -91 11
11 7 22 -46 156 -11 29 -16 55 -12 58 5 3 25 -41 44 -97 31 -94 36 -103 57
-100 13 1 26 4 28 6 2 3 -8 47 -22 99 -29 105 -30 117 -16 117 6 0 10 -6 10
-14 0 -8 9 -55 21 -105 17 -76 24 -91 40 -91 30 0 33 22 17 126 -8 52 -11 97
-7 99 8 5 15 -30 24 -120 10 -95 12 -98 52 -92 19 3 41 3 50 0 12 -5 11 -9 -8
-19 l-24 -13 23 -2 c12 -1 27 -3 32 -4 6 -1 19 -3 31 -4 11 0 18 -5 15 -9 -3
-5 0 -9 7 -10 11 0 65 -7 134 -16 18 -3 38 -8 45 -12 7 -5 23 -7 35 -5 39 5
113 -41 175 -109 144 -157 202 -349 164 -541 -27 -135 -82 -239 -177 -336 -35
-36 -46 -53 -38 -59 17 -10 104 85 152 167 64 109 82 183 82 339 -1 122 -3
143 -29 215 -38 110 -88 188 -173 271 -75 74 -82 84 -61 84 14 0 25 -10 119
-101 125 -123 190 -283 190 -469 -1 -174 -53 -315 -166 -452 -34 -41 -51 -69
-45 -73 6 -4 19 0 29 9 15 13 24 14 46 6 15 -6 35 -8 44 -5 34 11 141 204 157
285 7 35 7 35 100 15 24 -5 33 -3 38 10 14 38 26 205 19 275 -9 83 -5 80 -90
65 -40 -7 -42 -6 -48 21 -14 65 -59 183 -93 244 -20 36 -35 67 -33 70 3 6 34
0 41 -8 3 -4 26 -17 53 -29 26 -13 47 -26 47 -30 0 -5 9 -14 20 -21 18 -11 16
-4 -11 50 -67 133 -182 262 -303 338 -30 19 -55 43 -56 52 0 20 -32 32 -59 23
-24 -7 -35 9 -27 39 5 22 46 44 46 25 0 -16 56 -39 68 -27 8 8 26 2 67 -23
216 -130 386 -366 451 -622 16 -65 16 -68 -1 -81 -10 -7 -15 -18 -12 -23 12
-19 9 -225 -4 -298 -9 -51 -9 -70 0 -73 24 -8 1 -84 -67 -220 -46 -91 -46 -93
-29 -121 9 -16 17 -37 17 -46 0 -27 23 -12 55 36 16 24 40 52 52 62 28 22 63
90 87 167 10 30 24 69 31 85 24 53 38 192 33 321 -3 68 -10 129 -15 136 -6 7
-14 31 -18 53 -30 169 -136 383 -256 519 -57 65 -204 186 -268 222 -55 31 -55
32 -42 53 13 21 167 -84 262 -179 66 -66 152 -171 178 -219 9 -14 14 -14 54 6
l44 21 37 -36 38 -37 -21 42 c-23 47 -27 68 -10 57 21 -12 140 -270 133 -287
-3 -9 -10 -14 -15 -11 -8 4 -98 -18 -117 -30 -8 -5 18 -130 30 -141 2 -3 29 0
59 5 30 6 72 13 94 16 22 3 49 11 61 19 23 15 69 14 86 -3 18 -18 21 -96 5
-142 -9 -25 -16 -39 -17 -32 0 6 -5 12 -11 12 -6 0 -9 -9 -6 -20 6 -22 -18
-41 -42 -32 -11 4 -13 -6 -8 -49 4 -35 3 -47 -3 -34 -7 17 -9 18 -9 3 -1 -11
-9 -18 -20 -18 -16 0 -20 -11 -26 -77 -4 -42 -19 -127 -34 -189 l-28 -112 36
-6 c73 -13 73 -13 85 23 19 55 83 83 104 45 5 -9 13 -15 18 -14 12 1 26 -69
20 -96 -4 -14 2 -28 19 -42 22 -19 25 -30 25 -93 0 -69 23 -163 42 -175 19
-12 37 21 71 131 37 117 68 242 89 365 20 118 17 510 -5 641 -105 626 -451
1158 -976 1500 -272 178 -595 294 -943 340 l-98 13 0 319 0 318 83 -6 c98 -8
298 -35 310 -42 22 -14 -25 47 -171 217 l-158 185 -2212 2 -2212 3 2 -1593z
m1607 1389 c7 -8 11 -37 9 -68 -3 -47 -6 -53 -27 -56 -13 -2 -28 1 -34 7 -8 8
-4 11 15 11 34 0 41 12 24 36 -10 12 -11 24 -5 36 11 20 -2 31 -25 22 -9 -3
-16 -2 -16 3 0 26 40 32 59 9z m-729 -155 c0 -6 -4 -13 -10 -16 -6 -4 -1 -18
12 -35 20 -28 20 -30 4 -54 -17 -27 -24 -30 -50 -20 -25 10 -19 24 10 24 33 0
30 33 -4 38 -17 3 -22 10 -22 31 0 15 3 31 7 34 10 10 53 8 53 -2z m3237 -462
c13 -13 5 -55 -14 -71 -18 -15 -33 4 -33 43 0 38 23 52 47 28z m-1465 -11 c9
-7 19 -36 22 -64 5 -42 3 -54 -13 -68 -39 -36 -91 14 -76 74 8 30 32 70 43 70
5 0 15 -6 24 -12z m-1002 -953 c0 -12 -14 -15 -65 -15 -51 0 -65 3 -65 15 0
12 14 15 65 15 51 0 65 -3 65 -15z m315 0 c0 -11 -99 -20 -122 -11 -8 3 -11
11 -8 16 8 14 130 9 130 -5z m-315 -100 c0 -12 -14 -15 -65 -15 -51 0 -65 3
-65 15 0 12 14 15 65 15 51 0 65 -3 65 -15z m315 6 c8 -14 -4 -19 -65 -22 -46
-3 -55 -1 -58 14 -3 15 5 17 57 17 33 0 62 -4 66 -9z m453 -83 c-6 -18 -28
-21 -28 -4 0 9 7 16 16 16 9 0 14 -5 12 -12z m-457 -23 c0 -14 -92 -24 -115
-12 -18 9 -18 11 -4 21 19 14 119 6 119 -9z m-311 0 c0 -12 -14 -15 -65 -15
-51 0 -65 3 -65 15 0 12 14 15 65 15 51 0 65 -3 65 -15z m0 -99 c0 -19 -10
-22 -75 -18 -39 3 -55 8 -55 18 0 11 16 14 65 14 49 0 65 -3 65 -14z m315 3
c10 -15 3 -19 -53 -28 -53 -8 -82 0 -82 24 0 12 15 15 64 15 36 0 68 -5 71
-11z m421 -34 c-3 -9 -11 -13 -16 -10 -8 5 -7 11 1 21 14 18 24 11 15 -11z
m-438 -51 c36 -7 24 -38 -16 -42 -41 -4 -62 -36 -33 -52 11 -5 32 -10 46 -10
20 0 26 -4 23 -17 -2 -14 -17 -19 -58 -24 -30 -3 -61 -4 -67 -1 -16 5 -17 34
-2 49 8 8 7 20 -4 43 -15 29 -15 32 3 50 19 19 31 20 108 4z m-293 -24 c0 -19
-5 -24 -20 -22 -11 2 -41 6 -67 9 -67 8 -64 31 5 36 78 5 82 4 82 -23z m3164
-10 c40 -11 50 -23 44 -54 -4 -21 -7 -22 -60 -12 -48 8 -54 12 -49 30 3 12 6
27 6 34 0 15 14 15 59 2z m-3112 -72 c-2 -13 -4 -3 -4 22 0 25 2 35 4 23 2
-13 2 -33 0 -45z m689 -34 c2 -43 7 -86 10 -96 3 -10 2 -23 -3 -30 -4 -7 -9
-42 -9 -77 -1 -35 -7 -68 -12 -73 -8 -8 -18 83 -22 207 0 6 3 45 6 88 8 99 24
88 30 -19z m-738 20 c-3 -16 -13 -19 -68 -19 -54 0 -65 3 -68 18 -3 14 4 17
45 17 26 0 55 5 63 10 19 12 33 -2 28 -26z m1380 -12 c2 -8 -14 -11 -60 -8
-82 6 -84 8 -18 16 66 8 73 7 78 -8z m-458 -48 c0 -9 -5 -14 -12 -12 -18 6
-21 28 -4 28 9 0 16 -7 16 -16z m1999 -51 c-1 -40 -4 -52 -10 -38 -11 29 -11
95 1 95 6 0 9 -25 9 -57z m-2628 27 c14 0 19 -7 19 -25 0 -24 -3 -25 -54 -25
-66 0 -86 7 -86 29 0 28 12 33 59 27 24 -3 52 -6 62 -6z m-301 -24 c0 -21 -5
-24 -47 -28 -66 -6 -83 0 -83 28 0 23 3 24 65 24 62 0 65 -1 65 -24z m865 -28
c2 -18 3 -38 4 -44 1 -7 11 -14 24 -18 21 -5 23 -10 22 -63 -1 -32 -3 -59 -4
-61 0 -1 -12 5 -26 14 -18 12 -23 22 -19 39 4 16 0 27 -15 37 -16 11 -21 27
-22 70 -1 30 1 61 6 67 11 19 27 -2 30 -41z m265 32 c0 -5 -4 -10 -10 -10 -5
0 -10 5 -10 10 0 6 5 10 10 10 6 0 10 -4 10 -10z m-1760 -69 c0 -11 9 -27 21
-35 21 -14 21 -14 -9 -30 -39 -20 -54 -5 -45 47 6 39 33 53 33 18z m1970 0 c0
-16 -17 -21 -49 -15 -44 9 -38 24 9 24 22 0 40 -4 40 -9z m-1370 -20 c21 -4
35 -12 35 -21 0 -19 -122 -27 -139 -10 -14 14 33 52 54 43 8 -3 31 -9 50 -12z
m461 -86 c2 -44 8 -86 13 -93 6 -9 6 -16 -1 -20 -12 -8 -26 -165 -16 -176 11
-11 12 -135 2 -142 -5 -3 -9 -34 -9 -69 0 -53 -3 -63 -15 -59 -18 7 -20 44 -2
44 8 0 7 4 -3 11 -11 8 -12 12 -2 16 6 2 12 17 12 33 0 16 -6 31 -12 34 -10 5
-10 7 0 12 6 3 12 14 12 25 0 10 -6 19 -12 19 -9 0 -8 4 2 11 11 8 12 12 3 16
-8 2 -13 22 -13 44 0 74 -33 102 -64 54 -14 -21 -24 -25 -62 -25 -41 0 -45 -2
-42 -22 2 -19 10 -23 38 -24 58 -1 62 -3 58 -26 -3 -20 -10 -23 -50 -26 -43
-3 -48 -5 -48 -28 0 -22 4 -24 49 -24 50 0 73 -18 48 -38 -16 -12 -126 -12
-133 0 -4 6 0 21 7 35 9 18 10 29 2 41 -18 30 -35 18 -53 -38 l-18 -55 -11 29
c-9 22 -16 27 -32 23 -25 -7 -69 11 -69 29 0 15 -20 23 -83 30 -60 7 -67 10
-67 29 0 13 25 19 115 28 26 3 34 12 59 63 31 63 38 128 23 212 -6 34 -5 43 5
40 7 -3 15 -13 17 -23 5 -29 29 -47 51 -40 14 4 33 -3 62 -24 46 -34 85 -40
95 -15 8 23 -15 35 -62 32 -34 -3 -40 0 -40 17 0 16 8 21 39 25 74 9 73 59 -1
60 -36 0 -46 9 -33 30 9 15 88 24 123 14 19 -6 23 -34 6 -51 -7 -7 -4 -21 10
-47 14 -24 19 -46 15 -61 -5 -22 -3 -25 20 -25 26 0 26 0 26 80 0 47 4 80 10
80 6 0 10 10 10 23 1 17 2 19 9 7 5 -8 11 -51 12 -95z m2805 48 c-10 -10 -19
5 -10 18 6 11 8 11 12 0 2 -7 1 -15 -2 -18z m-3746 7 c0 -5 -4 -10 -9 -10 -6
0 -13 5 -16 10 -3 6 1 10 9 10 9 0 16 -4 16 -10z m1848 -22 c-3 -7 -20 -13
-38 -13 -18 0 -35 6 -37 13 -3 8 8 12 37 12 29 0 40 -4 38 -12z m-1909 -48
c17 0 19 -5 14 -35 -3 -20 -1 -41 6 -49 9 -11 9 -16 0 -21 -6 -4 -9 -19 -5
-35 3 -18 0 -33 -8 -39 -14 -12 -16 -58 -3 -77 13 -22 -21 -37 -68 -30 -36 6
-46 4 -51 -8 -11 -28 -25 -6 -19 28 5 27 1 38 -23 64 -19 20 -40 32 -56 32
-19 0 -24 4 -19 16 3 9 12 13 22 9 10 -4 8 2 -7 18 -21 23 -30 56 -14 58 4 0
16 2 27 4 10 2 24 0 30 -5 18 -15 75 26 75 53 0 37 18 48 51 31 15 -7 37 -14
48 -14z m1201 -3 c0 -42 -6 -48 -36 -35 -15 7 -24 20 -24 34 0 21 4 24 53 33
4 0 7 -14 7 -32z m2375 23 c3 -5 -1 -10 -9 -10 -9 0 -16 5 -16 10 0 6 4 10 9
10 6 0 13 -4 16 -10z m65 -11 c0 -5 -7 -9 -15 -9 -9 0 -12 6 -9 15 6 15 24 11
24 -6z m61 -12 c-1 -12 -15 -9 -19 4 -3 6 1 10 8 8 6 -3 11 -8 11 -12z m-3133
-14 c-3 -14 -15 -19 -62 -21 -32 -2 -63 1 -69 7 -19 19 6 31 69 31 57 0 65 -2
62 -17z m3192 -3 c0 -5 -4 -10 -10 -10 -5 0 -10 5 -10 10 0 6 5 10 10 10 6 0
10 -4 10 -10z m-2446 -100 c-3 -19 -8 -42 -12 -50 -8 -20 -21 79 -14 109 l5
24 13 -24 c8 -14 11 -39 8 -59z m-118 23 c-10 -10 -19 5 -10 18 6 11 8 11 12
0 2 -7 1 -15 -2 -18z m-628 -25 c3 -16 -5 -18 -61 -18 -69 0 -83 6 -65 27 17
21 122 14 126 -9z m3516 1 c-3 -5 -10 -7 -15 -3 -5 3 -7 10 -3 15 3 5 10 7 15
3 5 -3 7 -10 3 -15z m-2678 -40 c0 -24 -10 -24 -36 -2 -27 24 -25 30 8 25 19
-2 28 -9 28 -23z m2734 -17 c0 -13 -12 -22 -22 -16 -10 6 -1 24 13 24 5 0 9
-4 9 -8z m-3560 -52 c0 -22 -3 -23 -70 -20 -62 2 -82 9 -78 28 2 13 17 18 58
22 64 6 90 -3 90 -30z m1122 -25 c0 -5 -5 -11 -11 -13 -6 -2 -11 4 -11 13 0 9
5 15 11 13 6 -2 11 -8 11 -13z m58 -1 c0 -11 -5 -14 -16 -10 -9 3 -18 6 -20 6
-3 0 -2 5 1 10 10 16 35 12 35 -6z m2422 1 c0 -5 -5 -11 -11 -13 -6 -2 -11 4
-11 13 0 9 5 15 11 13 6 -2 11 -8 11 -13z m-3952 -11 c0 -2 -9 -4 -21 -4 -11
0 -18 4 -14 10 5 8 35 3 35 -6z m1417 10 c-3 -3 -12 -4 -19 -1 -8 3 -5 6 6 6
11 1 17 -2 13 -5z m-451 -51 c-11 -11 -19 6 -11 24 8 17 8 17 12 0 3 -10 2
-21 -1 -24z m3024 -37 c-7 -7 -14 -6 -22 2 -10 10 -10 15 2 22 17 11 34 -10
20 -24z m-4230 14 c0 -5 -2 -10 -4 -10 -3 0 -8 5 -11 10 -3 6 -1 10 4 10 6 0
11 -4 11 -10z m1910 0 c0 -5 -7 -10 -15 -10 -8 0 -15 5 -15 10 0 6 7 10 15 10
8 0 15 -4 15 -10z m-704 -27 c-10 -10 -19 5 -10 18 6 11 8 11 12 0 2 -7 1 -15
-2 -18z m54 7 c0 -5 -2 -10 -4 -10 -3 0 -8 5 -11 10 -3 6 -1 10 4 10 6 0 11
-4 11 -10z m-1260 -30 c0 -5 -5 -10 -11 -10 -5 0 -7 5 -4 10 3 6 8 10 11 10 2
0 4 -4 4 -10z m-770 -10 c0 -5 -7 -10 -15 -10 -8 0 -15 5 -15 10 0 6 7 10 15
10 8 0 15 -4 15 -10z m1976 -17 c-10 -10 -19 5 -10 18 6 11 8 11 12 0 2 -7 1
-15 -2 -18z m-46 7 c0 -5 -2 -10 -4 -10 -3 0 -8 5 -11 10 -3 6 -1 10 4 10 6 0
11 -4 11 -10z m100 0 c0 -5 -4 -10 -10 -10 -5 0 -10 5 -10 10 0 6 5 10 10 10
6 0 10 -4 10 -10z m650 2 c0 -13 -12 -22 -22 -16 -10 6 -1 24 13 24 5 0 9 -4
9 -8z m2350 -12 c0 -11 -7 -20 -15 -20 -27 0 -18 30 13 39 1 1 2 -8 2 -19z
m-3674 -1 c13 -22 -20 -35 -83 -31 -54 3 -63 7 -63 23 0 17 8 19 69 19 40 0
73 -5 77 -11z m-1016 -14 c7 -8 8 -15 2 -15 -5 0 -15 7 -22 15 -7 8 -8 15 -2
15 5 0 15 -7 22 -15z m267 -17 c-3 -8 -6 -5 -6 6 -1 11 2 17 5 13 3 -3 4 -12
1 -19z m1886 13 c4 -1 7 -5 7 -10 0 -11 -85 -22 -107 -14 -14 6 -12 9 12 19
17 7 41 11 55 9 14 -2 28 -4 33 -4z m-2449 -10 c4 -5 -2 -23 -11 -40 -19 -32
-49 -41 -71 -19 -13 13 -16 50 -5 61 10 10 81 8 87 -2z m1936 -13 c0 -16 -3
-19 -11 -11 -6 6 -8 16 -5 22 11 17 16 13 16 -11z m708 -15 c-2 -10 -9 -18
-16 -17 -6 1 -23 2 -37 3 -31 1 -33 18 -2 24 48 9 59 7 55 -10z m-2045 -17
c20 7 28 -7 29 -60 1 -55 -8 -72 -28 -55 -11 9 -18 9 -27 0 -9 -9 -14 -3 -22
26 -8 28 -17 39 -33 41 -27 4 -29 22 -2 22 10 0 24 9 30 21 9 15 15 18 24 9 8
-5 20 -8 29 -4z m4407 -11 c0 -8 -7 -15 -15 -15 -8 0 -15 7 -15 15 0 8 7 15
15 15 8 0 15 -7 15 -15z m-3376 -16 c18 -16 -14 -37 -57 -37 -23 1 -48 -1 -55
-3 -21 -6 -39 26 -24 43 13 16 119 13 136 -3z m-329 -13 c0 -17 -8 -19 -63
-20 -66 -1 -78 4 -68 30 4 12 20 14 68 12 54 -3 63 -6 63 -22z m635 -8 c0 -16
-3 -19 -11 -11 -6 6 -8 16 -5 22 11 17 16 13 16 -11z m750 12 c0 -5 -16 -10
-35 -10 -19 0 -35 5 -35 10 0 6 16 10 35 10 19 0 35 -4 35 -10z m-2873 -32
c-3 -7 -5 -2 -5 12 0 14 2 19 5 13 2 -7 2 -19 0 -25z m183 1 c0 -5 -7 -9 -15
-9 -15 0 -20 12 -9 23 8 8 24 -1 24 -14z m350 -5 c0 -8 -4 -12 -10 -9 -5 3
-10 10 -10 16 0 5 5 9 10 9 6 0 10 -7 10 -16z m4670 -24 c0 -11 -7 -20 -15
-20 -15 0 -21 21 -8 33 12 13 23 7 23 -13z m-3422 -30 c26 0 33 -4 30 -17 -2
-14 -16 -19 -53 -23 -47 -5 -51 -8 -46 -39 0 -6 25 -11 54 -13 44 -3 52 -6 52
-23 0 -17 -8 -21 -55 -25 -55 -5 -55 -5 -52 -37 2 -17 -2 -34 -7 -38 -7 -4
-11 6 -11 25 0 16 -6 39 -12 50 -10 15 -10 26 0 52 8 21 8 36 2 42 -13 13 -13
49 1 63 8 8 18 7 37 -3 15 -8 42 -14 60 -14z m-281 -33 c1 -18 5 -47 9 -66 8
-42 -3 -50 -64 -44 -79 7 -94 12 -90 31 2 13 17 18 58 22 47 4 55 8 55 25 0
17 -8 21 -52 25 -57 6 -68 12 -60 34 7 17 114 27 132 13 6 -4 11 -22 12 -40z
m626 47 c9 -9 -4 -35 -14 -28 -5 3 -9 12 -9 20 0 14 12 19 23 8z m-1591 -34
c0 -16 1 -35 2 -42 1 -6 -4 -13 -11 -15 -9 -3 -12 10 -11 41 1 51 17 64 20 16z
m388 -10 c0 -5 -13 -10 -29 -10 -17 0 -33 5 -36 10 -4 6 8 10 29 10 20 0 36
-4 36 -10z m1205 -61 c-5 -16 -10 -18 -21 -8 -17 14 -18 31 -2 47 16 16 32
-10 23 -39z m711 38 c3 -8 0 -27 -7 -43 l-11 -29 -14 33 c-8 18 -12 37 -9 43
9 13 35 11 41 -4z m2364 -2 c0 -8 -9 -15 -20 -15 -13 0 -18 5 -14 15 4 8 12
15 20 15 8 0 14 -7 14 -15z m-2566 -4 c3 -4 17 -6 32 -3 21 4 25 1 22 -14 -3
-17 -13 -19 -78 -19 -60 0 -75 3 -75 15 0 10 10 15 32 15 18 1 35 4 39 8 10 9
22 9 28 -2z m-2104 -61 c0 -5 -4 -10 -10 -10 -5 0 -10 5 -10 10 0 6 5 10 10
10 6 0 10 -4 10 -10z m2110 -10 c0 -5 -9 -10 -21 -10 -11 0 -17 5 -14 10 3 6
13 10 21 10 8 0 14 -4 14 -10z m50 0 c0 -5 -7 -10 -16 -10 -8 0 -12 5 -9 10 3
6 10 10 16 10 5 0 9 -4 9 -10z m2500 -10 c0 -13 -19 -22 -30 -15 -14 9 0 34
16 28 8 -3 14 -9 14 -13z m-3570 -67 c0 -27 -5 -55 -10 -63 -8 -13 -10 -13
-10 1 0 9 -9 24 -20 34 -26 23 -25 39 3 58 33 24 37 21 37 -30z m1191 7 c33 0
59 -4 59 -9 0 -9 -177 -12 -194 -3 -17 9 20 22 48 17 16 -3 55 -5 87 -5z
m2359 -20 c0 -12 -28 -25 -36 -17 -9 9 6 27 22 27 8 0 14 -5 14 -10z m-35 -79
c7 -12 -12 -24 -25 -16 -11 7 -4 25 10 25 5 0 11 -4 15 -9z m-41 -86 c-3 -8
-12 -11 -19 -9 -8 3 -11 12 -9 19 3 8 12 11 19 9 8 -3 11 -12 9 -19z m1066
-50 c12 -15 4 -54 -26 -120 -7 -16 -17 -45 -22 -64 -13 -55 -28 -47 -40 23
-12 66 -7 141 11 164 13 17 62 15 77 -3z m-1119 -18 c-1 -12 -15 -9 -19 4 -3
6 1 10 8 8 6 -3 11 -8 11 -12z"/>
<path d="M2028 4902 c-26 -5 -33 -40 -12 -63 18 -20 18 -19 41 5 13 14 23 29
23 33 0 13 -34 29 -52 25z"/>
<path d="M1760 4886 c0 -9 5 -16 10 -16 6 0 10 4 10 9 0 6 -4 13 -10 16 -5 3
-10 -1 -10 -9z"/>
<path d="M1884 4845 c-4 -8 -1 -22 6 -30 22 -27 80 -16 80 15 0 31 -75 44 -86
15z"/>
<path d="M1842 4834 c4 -21 22 -23 26 -1 2 10 -3 17 -13 17 -10 0 -15 -6 -13
-16z"/>
<path d="M1747 4775 c-8 -18 11 -31 25 -17 11 11 3 32 -12 32 -4 0 -10 -7 -13
-15z"/>
<path d="M1840 4730 c0 -13 5 -20 13 -17 6 2 12 10 12 17 0 7 -6 15 -12 18 -8
2 -13 -5 -13 -18z"/>
<path d="M6206 6198 c-13 -13 -70 -74 -125 -137 -79 -89 -101 -120 -101 -143
0 -23 6 -31 30 -39 27 -10 30 -15 30 -55 0 -37 3 -44 20 -44 27 0 37 26 32 87
-3 44 -8 53 -27 60 -22 8 -19 14 76 118 54 61 105 111 112 113 7 1 34 -22 59
-51 41 -47 50 -53 77 -49 38 5 36 10 -47 96 -69 73 -94 81 -136 44z"/>
<path d="M6354 6039 c-42 -12 -120 -83 -144 -129 -24 -47 -36 -115 -22 -124
14 -8 42 3 42 18 0 35 26 92 55 125 30 33 70 57 128 75 9 3 17 15 17 26 0 22
-22 25 -76 9z"/>
<path d="M6365 5938 c-60 -33 -105 -96 -105 -148 0 -45 40 -38 55 10 14 44 36
69 76 86 38 17 54 38 43 55 -7 12 -45 11 -69 -3z"/>
<path d="M6382 5864 c-35 -24 -28 -84 12 -103 25 -12 31 -11 55 6 34 26 39 65
10 92 -27 25 -47 26 -77 5z m59 -30 c9 -11 10 -20 3 -32 -15 -23 -29 -25 -48
-7 -12 12 -13 21 -6 36 13 23 33 25 51 3z"/>
<path d="M4117 5418 c-37 -17 -66 -36 -64 -42 6 -18 122 -19 157 -1 25 13 31
22 28 43 -4 38 -38 38 -121 0z"/>
<path d="M3451 5252 c-43 -64 -47 -72 -32 -72 17 0 93 112 83 122 -7 7 -24
-10 -51 -50z"/>
<path d="M3535 5198 c-41 -57 -52 -79 -20 -43 41 48 67 85 58 85 -4 0 -21 -19
-38 -42z"/>
<path d="M6470 5190 c-19 -19 -20 -33 -20 -213 0 -151 3 -197 14 -213 13 -18
28 -19 206 -19 222 0 220 -1 220 93 0 65 -11 88 -47 97 -15 3 -33 15 -41 27
-10 13 -21 18 -36 14 -12 -3 -32 -3 -44 1 -20 5 -22 12 -22 67 0 33 -4 66 -8
73 -7 12 -176 93 -193 93 -5 0 -18 -9 -29 -20z m114 -54 c40 -18 76 -38 80
-45 4 -6 4 -78 0 -161 l-7 -151 -81 3 -81 3 -3 193 c-2 133 1 192 8 192 6 0
44 -15 84 -34z m204 -194 c2 -7 -3 -12 -12 -12 -9 0 -16 7 -16 16 0 17 22 14
28 -4z m-48 -17 c7 -8 27 -15 44 -15 52 0 68 -18 64 -75 l-3 -50 -72 -3 -73
-3 0 81 c0 61 3 80 14 80 7 0 19 -7 26 -15z"/>
<path d="M6533 5083 c9 -2 23 -2 30 0 6 3 -1 5 -18 5 -16 0 -22 -2 -12 -5z"/>
<path d="M6603 5083 c9 -2 23 -2 30 0 6 3 -1 5 -18 5 -16 0 -22 -2 -12 -5z"/>
<path d="M6520 5030 c0 -5 9 -10 20 -10 11 0 20 5 20 10 0 6 -9 10 -20 10 -11
0 -20 -4 -20 -10z"/>
<path d="M6590 5030 c0 -5 11 -10 25 -10 14 0 25 5 25 10 0 6 -11 10 -25 10
-14 0 -25 -4 -25 -10z"/>
<path d="M6520 4980 c0 -5 9 -10 20 -10 11 0 20 5 20 10 0 6 -9 10 -20 10 -11
0 -20 -4 -20 -10z"/>
<path d="M6590 4980 c0 -5 11 -10 25 -10 14 0 25 5 25 10 0 6 -11 10 -25 10
-14 0 -25 -4 -25 -10z"/>
<path d="M6520 4930 c0 -5 9 -10 19 -10 11 0 23 5 26 10 4 6 -5 10 -19 10 -14
0 -26 -4 -26 -10z"/>
<path d="M6590 4930 c0 -5 11 -10 25 -10 14 0 25 5 25 10 0 6 -11 10 -25 10
-14 0 -25 -4 -25 -10z"/>
<path d="M6520 4880 c0 -5 9 -10 19 -10 11 0 23 5 26 10 4 6 -5 10 -19 10 -14
0 -26 -4 -26 -10z"/>
<path d="M6590 4880 c0 -5 11 -10 25 -10 14 0 25 5 25 10 0 6 -11 10 -25 10
-14 0 -25 -4 -25 -10z"/>
<path d="M6753 4883 c9 -2 23 -2 30 0 6 3 -1 5 -18 5 -16 0 -22 -2 -12 -5z"/>
<path d="M6753 4843 c9 -2 23 -2 30 0 6 3 -1 5 -18 5 -16 0 -22 -2 -12 -5z"/>
<path d="M6750 4810 c0 -5 9 -10 20 -10 11 0 20 5 20 10 0 6 -9 10 -20 10 -11
0 -20 -4 -20 -10z"/>
<path d="M4213 5158 c-25 -12 -29 -28 -12 -45 16 -16 20 -63 6 -57 -7 2 -18 0
-26 -5 -10 -7 -6 -20 21 -62 l35 -54 -35 -28 c-36 -28 -62 -35 -62 -17 0 6
-14 9 -32 8 -24 -2 -33 2 -36 15 -3 12 5 19 27 23 32 7 42 30 17 40 -8 3 -24
1 -35 -6 -18 -9 -22 -7 -31 15 -6 15 -7 32 -3 38 3 7 -14 -8 -40 -32 -43 -42
-46 -47 -41 -88 3 -31 -2 -55 -16 -83 -11 -21 -20 -48 -20 -59 0 -11 -9 -25
-20 -31 -11 -6 -20 -17 -20 -24 0 -16 27 -29 42 -20 6 4 9 1 6 -7 -2 -8 -20
-19 -39 -25 -40 -14 -54 -47 -17 -44 39 4 48 1 48 -15 0 -17 -30 -35 -59 -35
-12 0 -21 -4 -21 -10 0 -5 8 -10 18 -10 9 0 29 -6 44 -14 25 -13 28 -13 33 6
4 11 9 17 12 14 10 -9 2 -160 -8 -170 -16 -17 -10 -36 11 -36 18 0 20 7 21 63
0 69 17 131 37 133 6 1 17 2 22 3 6 0 10 16 10 34 0 19 3 37 8 41 4 4 7 26 7
49 l0 42 55 -4 c64 -4 57 -1 62 -26 2 -16 -5 -22 -34 -29 -21 -5 -38 -14 -38
-19 0 -5 7 -7 15 -3 8 3 15 1 15 -5 0 -6 12 -9 26 -7 20 2 33 16 58 63 18 33
38 61 44 62 7 2 39 23 72 47 189 139 449 119 628 -48 156 -146 195 -372 98
-564 -61 -120 -158 -204 -290 -250 -57 -20 -92 -25 -175 -26 -79 -1 -105 -4
-109 -15 -4 -11 3 -12 31 -7 26 5 44 2 60 -9 18 -12 39 -14 83 -10 224 22 412
181 469 396 19 70 19 200 0 272 -46 176 -184 324 -354 378 -123 39 -290 26
-404 -33 -51 -25 -129 -97 -120 -111 3 -5 1 -7 -4 -4 -6 4 -22 -2 -36 -13 -18
-14 -40 -20 -79 -20 -48 0 -56 3 -65 23 -6 13 -8 30 -3 37 6 10 8 10 12 -1 4
-11 10 -11 36 0 17 7 43 10 56 7 14 -3 28 -2 31 4 4 6 -8 10 -29 10 -19 0 -36
6 -39 13 -3 10 -9 10 -26 0 -29 -18 -38 -16 -36 7 1 12 14 27 29 35 33 17 50
19 41 5 -3 -6 4 -10 17 -10 14 0 43 18 71 45 l48 45 -22 30 c-13 16 -26 30
-31 30 -4 0 -8 10 -8 21 0 18 2 20 16 8 8 -7 24 -30 35 -52 14 -27 25 -37 35
-33 9 3 18 6 20 6 14 0 -2 44 -42 112 -25 43 -43 85 -40 93 6 17 0 18 -31 3z"/>
<path d="M3217 5143 c-4 -3 -7 -13 -7 -22 1 -13 3 -13 11 2 11 19 8 33 -4 20z"/>
<path d="M3380 5140 c0 -5 5 -10 10 -10 6 0 10 5 10 10 0 6 -4 10 -10 10 -5 0
-10 -4 -10 -10z"/>
<path d="M3221 5057 c-7 -9 -11 -23 -8 -31 3 -8 -1 -29 -10 -46 -25 -50 -28
-104 -7 -124 16 -17 18 -17 27 1 17 28 25 103 18 162 -5 48 -8 52 -20 38z"/>
<path d="M6715 5061 c-8 -13 12 -23 33 -17 27 9 83 -11 114 -41 29 -28 50 -25
32 5 -22 36 -76 62 -125 62 -26 0 -50 -4 -54 -9z"/>
<path d="M6732 5018 c3 -7 19 -15 37 -19 17 -4 40 -14 50 -23 22 -20 41 -21
41 -1 0 8 -15 24 -32 35 -37 22 -102 28 -96 8z"/>
<path d="M3285 4964 c-8 -20 -15 -51 -14 -68 0 -31 1 -31 20 13 11 24 22 54
25 67 10 38 -14 28 -31 -12z"/>
<path d="M3376 4929 c-30 -70 -42 -107 -28 -94 15 15 64 136 58 143 -3 3 -16
-19 -30 -49z"/>
<path d="M4180 4951 c0 -11 4 -21 9 -21 18 0 21 18 6 30 -13 10 -15 9 -15 -9z"/>
<path d="M4575 4843 c-97 -13 -190 -55 -251 -111 -52 -48 -63 -72 -57 -125 6
-47 6 -47 21 -25 9 13 30 40 49 60 20 24 30 43 26 54 -4 11 -1 15 13 12 11 -1
49 11 84 27 58 27 75 30 165 30 87 0 107 -3 156 -26 53 -25 139 -92 139 -108
0 -4 -18 -22 -39 -39 l-39 -32 -34 32 c-73 69 -202 93 -291 54 -56 -25 -117
-85 -143 -141 -30 -62 -32 -85 -6 -63 20 18 103 48 147 53 17 2 55 6 85 9 30
4 65 8 77 11 35 8 125 -51 128 -85 1 -3 4 -15 9 -27 8 -24 -10 -103 -23 -103
-5 0 -11 -11 -13 -25 -3 -14 -2 -25 2 -25 10 0 -10 -81 -24 -99 -21 -28 32 8
68 45 47 48 69 98 74 166 4 52 7 57 31 63 34 8 76 76 84 137 6 42 3 52 -26 95
-83 121 -272 206 -412 186z"/>
<path d="M4515 4747 c-58 -19 -84 -35 -140 -82 -59 -50 -95 -116 -94 -171 3
-99 37 -125 56 -44 20 83 75 156 147 193 54 28 71 32 141 32 67 0 88 -5 131
-27 27 -15 56 -34 63 -42 18 -22 34 -20 60 8 l22 23 -38 33 c-62 55 -137 83
-228 87 -48 2 -96 -3 -120 -10z"/>
<path d="M3291 4634 c0 -11 3 -14 6 -6 3 7 2 16 -1 19 -3 4 -6 -2 -5 -13z"/>
<path d="M4225 4607 c-19 -30 -32 -97 -18 -97 10 0 46 110 39 118 -3 2 -12 -7
-21 -21z"/>
<path d="M3281 4564 c0 -11 3 -14 6 -6 3 7 2 16 -1 19 -3 4 -6 -2 -5 -13z"/>
<path d="M4117 4553 c-13 -12 -7 -23 12 -23 10 0 21 7 25 15 5 15 -24 22 -37
8z"/>
<path d="M3905 4470 c-3 -5 1 -10 9 -10 9 0 16 5 16 10 0 6 -4 10 -9 10 -6 0
-13 -4 -16 -10z"/>
<path d="M4100 4470 c0 -5 7 -10 15 -10 8 0 15 5 15 10 0 6 -7 10 -15 10 -8 0
-15 -4 -15 -10z"/>
<path d="M4180 4470 c0 -5 5 -10 10 -10 6 0 10 5 10 10 0 6 -4 10 -10 10 -5 0
-10 -4 -10 -10z"/>
<path d="M2434 4445 c-19 -14 -18 -14 4 -15 13 0 22 6 22 15 0 19 -1 19 -26 0z"/>
<path d="M560 4430 c0 -5 5 -10 10 -10 6 0 10 5 10 10 0 6 -4 10 -10 10 -5 0
-10 -4 -10 -10z"/>
<path d="M5963 4385 c0 -22 2 -30 4 -17 2 12 2 30 0 40 -3 9 -5 -1 -4 -23z"/>
<path d="M4090 4385 c0 -8 7 -15 15 -15 8 0 15 4 15 9 0 5 -7 11 -15 15 -9 3
-15 0 -15 -9z"/>
<path d="M30 4350 c0 -13 40 -13 60 0 11 7 5 10 -22 10 -21 0 -38 -4 -38 -10z"/>
<path d="M465 4340 c-3 -5 -2 -10 4 -10 5 0 13 5 16 10 3 6 2 10 -4 10 -5 0
-13 -4 -16 -10z"/>
<path d="M1328 4333 c7 -3 16 -2 19 1 4 3 -2 6 -13 5 -11 0 -14 -3 -6 -6z"/>
<path d="M4992 4286 c-36 -149 -182 -266 -343 -274 -72 -4 -77 -6 -93 -34 -10
-16 -16 -31 -14 -32 1 -2 29 -6 61 -9 193 -17 387 119 448 314 25 82 25 86
-14 85 -32 -1 -34 -4 -45 -50z"/>
<path d="M3921 4321 c-35 -10 -36 -26 -2 -41 42 -17 66 -10 66 20 0 27 -20 34
-64 21z"/>
<path d="M4100 4306 c0 -9 7 -16 16 -16 17 0 14 22 -4 28 -7 2 -12 -3 -12 -12z"/>
<path d="M30 4300 c0 -13 40 -13 60 0 11 7 5 10 -22 10 -21 0 -38 -4 -38 -10z"/>
<path d="M30 4250 c0 -5 11 -10 24 -10 14 0 28 5 31 10 4 6 -7 10 -24 10 -17
0 -31 -4 -31 -10z"/>
<path d="M935 4250 c-4 -6 -3 -16 3 -22 6 -6 12 -6 17 2 4 6 3 16 -3 22 -6 6
-12 6 -17 -2z"/>
<path d="M6660 4216 c0 -35 -4 -45 -20 -49 -17 -4 -20 -14 -20 -66 0 -57 3
-64 35 -96 29 -30 41 -35 80 -35 26 0 44 4 41 9 -3 4 6 13 19 19 26 12 31 25
39 109 4 45 2 53 -15 58 -15 5 -19 16 -19 51 0 37 -3 44 -20 44 -17 0 -20 -7
-20 -45 0 -45 0 -45 -35 -45 -35 0 -35 0 -35 45 0 33 -4 45 -15 45 -11 0 -15
-12 -15 -44z m75 -125 c-4 -13 -1 -20 11 -23 14 -2 13 -6 -7 -23 -19 -17 -21
-17 -16 -3 3 10 0 18 -7 20 -10 2 -11 10 -5 26 10 27 33 30 24 3z"/>
<path d="M3903 4237 c-29 -5 -53 -13 -53 -17 0 -11 92 -27 120 -20 16 4 25 13
25 25 0 24 -20 27 -92 12z"/>
<path d="M3278 4224 c-3 -5 0 -29 6 -54 l10 -45 4 37 c3 37 -11 79 -20 62z"/>
<path d="M30 4200 c0 -5 14 -10 31 -10 17 0 28 4 24 10 -3 6 -17 10 -31 10
-13 0 -24 -4 -24 -10z"/>
<path d="M5537 4193 c-4 -3 -7 -11 -7 -17 0 -6 5 -5 12 2 6 6 9 14 7 17 -3 3
-9 2 -12 -2z"/>
<path d="M3915 4153 c-40 -13 -46 -17 -30 -23 11 -4 26 -5 33 -2 7 2 19 -1 27
-8 19 -16 35 -4 35 26 0 27 2 27 -65 7z"/>
<path d="M35 4150 c-4 -6 7 -10 25 -10 18 0 29 4 25 10 -3 6 -15 10 -25 10
-10 0 -22 -4 -25 -10z"/>
<path d="M4350 4110 c20 -13 33 -13 25 0 -3 6 -14 10 -23 10 -15 0 -15 -2 -2
-10z"/>
<path d="M43 4093 c9 -2 25 -2 35 0 9 3 1 5 -18 5 -19 0 -27 -2 -17 -5z"/>
<path d="M3962 4085 c-7 -8 -24 -15 -37 -15 -24 0 -32 -10 -19 -23 10 -9 86
32 79 43 -8 12 -7 12 -23 -5z"/>
<path d="M2660 4081 c0 -6 5 -13 10 -16 6 -3 10 1 10 9 0 9 -4 16 -10 16 -5 0
-10 -4 -10 -9z"/>
<path d="M2545 4070 c-3 -5 -1 -10 4 -10 6 0 11 5 11 10 0 6 -2 10 -4 10 -3 0
-8 -4 -11 -10z"/>
<path d="M4040 4074 c1 -5 7 -20 15 -34 13 -24 14 -24 15 -4 0 12 -7 27 -15
34 -8 7 -15 9 -15 4z"/>
<path d="M3972 4042 c-19 -9 -32 -23 -32 -34 0 -30 63 -139 74 -127 2 2 8 14
14 26 9 17 9 22 -4 27 -8 3 -12 11 -9 17 4 6 13 8 20 5 26 -10 24 25 -3 63
-28 38 -28 38 -60 23z m28 -27 c0 -8 -6 -15 -14 -15 -17 0 -28 14 -19 24 12
12 33 6 33 -9z"/>
<path d="M43 4043 c9 -2 23 -2 30 0 6 3 -1 5 -18 5 -16 0 -22 -2 -12 -5z"/>
<path d="M5400 4000 c-13 -11 -29 -20 -35 -20 -7 0 -20 -11 -29 -25 -9 -14
-24 -25 -33 -25 -9 0 -13 -3 -9 -7 4 -5 32 -8 61 -8 51 0 54 2 69 33 17 36 21
72 8 72 -5 0 -19 -9 -32 -20z"/>
<path d="M944 3999 c-3 -6 -1 -16 5 -22 8 -8 11 -5 11 11 0 24 -5 28 -16 11z"/>
<path d="M6680 3950 c0 -5 20 -10 45 -10 25 0 45 5 45 10 0 6 -20 10 -45 10
-25 0 -45 -4 -45 -10z"/>
<path d="M653 3928 c2 -7 10 -13 17 -13 7 0 15 6 18 13 2 7 -5 12 -18 12 -13
0 -20 -5 -17 -12z"/>
<path d="M6680 3920 c0 -5 7 -10 15 -10 17 0 22 -75 5 -85 -17 -11 -11 -54 9
-65 15 -7 25 -5 42 9 21 17 22 22 11 45 -15 32 -16 96 -2 96 6 0 10 5 10 10 0
6 -20 10 -45 10 -25 0 -45 -4 -45 -10z"/>
<path d="M140 3890 c0 -5 5 -10 10 -10 6 0 10 5 10 10 0 6 -4 10 -10 10 -5 0
-10 -4 -10 -10z"/>
<path d="M1011 3881 c-8 -6 -9 -11 -3 -15 6 -3 14 -1 17 5 9 14 2 20 -14 10z"/>
<path d="M2313 3875 c-8 -22 6 -33 17 -15 13 20 12 30 0 30 -6 0 -13 -7 -17
-15z"/>
<path d="M1068 3873 c7 -3 16 -2 19 1 4 3 -2 6 -13 5 -11 0 -14 -3 -6 -6z"/>
<path d="M2665 3870 c-7 -12 13 -80 24 -80 4 0 7 19 6 42 0 40 -16 60 -30 38z"/>
<path d="M5001 3866 c-7 -9 -8 -17 -2 -20 13 -9 43 4 38 17 -5 17 -23 19 -36
3z"/>
<path d="M6000 3866 c0 -7 -9 -25 -21 -40 l-20 -26 36 -17 c30 -14 36 -22 32
-41 -3 -17 -1 -20 6 -13 19 19 27 12 21 -21 -11 -68 -14 -76 -34 -81 -26 -7
-26 -24 1 -32 29 -10 18 -29 -19 -33 -22 -2 -40 -14 -58 -38 -30 -38 -51 -46
-33 -11 15 28 2 15 -51 -53 -44 -57 -107 -127 -154 -169 l-26 -24 -25 23 c-27
26 -16 31 -118 -52 -55 -45 -97 -73 -97 -65 0 2 30 27 68 55 37 27 77 61 89
74 l23 24 -36 35 c-31 30 -36 32 -45 17 -5 -10 -29 -26 -54 -37 -24 -10 -71
-38 -105 -61 -122 -83 -284 -154 -445 -195 l-90 -23 3 -34 c5 -57 11 -76 30
-81 16 -4 16 -5 -1 -6 -14 -1 -16 -7 -11 -40 l6 -38 -42 -7 c-37 -6 -41 -9
-34 -29 3 -12 11 -27 16 -34 20 -24 17 -104 -5 -142 -24 -42 -123 -142 -132
-133 -3 3 -8 -4 -12 -16 -3 -13 -16 -25 -30 -28 -19 -5 -22 -9 -11 -16 7 -6 9
-11 3 -14 -52 -23 -60 -32 -70 -76 -8 -37 -21 -57 -57 -92 -27 -25 -48 -49
-48 -54 0 -10 34 -5 229 34 297 60 602 195 848 377 72 53 80 62 67 75 -8 8
-13 19 -11 26 5 14 47 21 47 7 0 -29 37 0 156 122 185 189 298 344 400 551 55
110 67 149 40 127 -10 -9 -24 -7 -58 8 l-44 19 4 66 c3 38 0 72 -6 79 -7 8 -7
25 0 53 13 49 4 101 -16 85 -16 -13 -53 -6 -76 14 -21 19 -30 19 -30 1z m-650
-751 c0 -2 -10 -9 -22 -15 -22 -11 -22 -10 -4 4 21 17 26 19 26 11z m-80 -45
c-19 -11 -39 -19 -45 -19 -5 0 6 8 25 19 19 11 40 19 45 19 6 0 -6 -8 -25 -19z
m-283 -106 c-3 -3 -12 -4 -19 -1 -8 3 -5 6 6 6 11 1 17 -2 13 -5z m167 -157
c40 -38 46 -62 16 -72 -26 -8 -53 13 -47 36 3 10 -1 23 -9 30 -15 13 -19 39
-5 39 5 0 25 -15 45 -33z m376 -37 c0 -5 -4 -10 -10 -10 -5 0 -10 5 -10 10 0
6 5 10 10 10 6 0 10 -4 10 -10z m-312 -129 c5 -32 -21 -51 -56 -42 -27 8 -38
30 -28 57 4 11 17 14 43 12 32 -2 39 -7 41 -27z m-103 -158 c-7 -17 -8 -16
-17 4 -6 12 -7 30 -3 40 7 17 8 16 17 -4 6 -12 7 -30 3 -40z"/>
<path d="M202 3846 c-14 -32 -1 -51 33 -50 72 3 75 4 75 23 0 11 5 23 10 26
22 14 8 22 -20 12 -22 -8 -38 -8 -59 0 -25 9 -30 8 -39 -11z"/>
<path d="M2600 3848 c1 -13 8 -34 16 -48 8 -14 13 -17 10 -7 -3 9 -2 17 3 17
19 0 19 40 1 50 -27 14 -30 13 -30 -12z"/>
<path d="M2780 3849 c0 -5 5 -7 10 -4 6 3 10 8 10 11 0 2 -4 4 -10 4 -5 0 -10
-5 -10 -11z"/>
<path d="M4123 3838 c-2 -24 64 -65 80 -49 8 8 7 11 -6 11 -9 0 -17 8 -17 18
0 14 -2 15 -10 2 -8 -13 -12 -13 -27 3 -14 15 -15 18 -3 17 24 -4 40 -1 40 8
0 4 -13 7 -28 7 -19 0 -29 -5 -29 -17z"/>
<path d="M940 3814 c0 -8 5 -12 10 -9 6 3 10 10 10 16 0 5 -4 9 -10 9 -5 0
-10 -7 -10 -16z"/>
<path d="M4230 3785 c0 -30 15 -37 65 -33 l37 3 -51 28 -51 27 0 -25z"/>
<path d="M6565 3790 c-3 -5 5 -12 18 -15 35 -9 80 -2 85 13 5 15 -93 17 -103
2z"/>
<path d="M6783 3788 c2 -8 22 -13 52 -13 30 0 50 5 53 13 3 9 -12 12 -53 12
-41 0 -56 -3 -52 -12z"/>
<path d="M4820 3769 c0 -5 5 -7 10 -4 6 3 10 8 10 11 0 2 -4 4 -10 4 -5 0 -10
-5 -10 -11z"/>
<path d="M4780 3761 c0 -6 5 -13 10 -16 6 -3 10 1 10 9 0 9 -4 16 -10 16 -5 0
-10 -4 -10 -9z"/>
<path d="M5415 3643 c2 -10 4 -21 4 -25 1 -11 41 -10 41 1 0 12 -29 41 -40 41
-4 0 -7 -8 -5 -17z"/>
<path d="M5331 3634 c0 -11 3 -14 6 -6 3 7 2 16 -1 19 -3 4 -6 -2 -5 -13z"/>
<path d="M5966 3618 l-17 -33 20 24 c18 20 27 41 18 41 -1 0 -11 -15 -21 -32z"/>
<path d="M3436 3518 c3 -5 10 -6 15 -3 13 9 11 12 -6 12 -8 0 -12 -4 -9 -9z"/>
<path d="M3401 3481 c-10 -6 -10 -10 -1 -16 13 -8 24 -1 19 14 -3 6 -10 7 -18
2z"/>
<path d="M5136 3473 c-1 -2 -16 -4 -32 -6 -46 -5 -64 -17 -64 -42 0 -27 -35
-43 -160 -74 -41 -10 -75 -24 -74 -30 1 -6 2 -23 3 -37 1 -25 2 -26 48 -19 55
8 197 57 268 92 60 30 175 105 175 115 0 6 -158 7 -164 1z"/>
<path d="M3106 3453 c-1 -2 -16 -4 -32 -6 -36 -5 -84 -27 -84 -39 0 -5 -4 -7
-9 -3 -20 12 -20 -13 0 -31 14 -13 22 -15 27 -7 14 22 97 73 120 73 12 0 22 4
22 9 0 9 -36 11 -44 4z"/>
<path d="M4010 3440 c-8 -26 -7 -41 2 -32 6 6 8 16 5 24 -3 7 -6 11 -7 8z"/>
<path d="M30 2865 c0 -382 3 -566 10 -570 7 -4 7 -11 2 -18 -5 -7 -7 -495 -4
-1145 l4 -1132 1028 0 1028 0 22 70 c12 38 26 72 31 75 5 4 9 17 9 30 0 13 5
27 10 30 6 3 10 17 10 30 0 13 5 27 10 30 6 3 10 15 10 26 0 10 4 27 9 37 5 9
30 82 56 162 25 80 50 153 55 162 6 10 10 29 10 43 0 14 5 25 10 25 6 0 10 14
10 30 0 17 5 30 10 30 6 0 10 11 10 24 0 37 63 139 88 142 4 0 19 4 33 8 16 5
38 2 60 -8 l34 -16 -35 4 c-74 8 -150 -57 -150 -129 0 -14 -4 -25 -10 -25 -5
0 -10 -13 -10 -28 0 -15 -4 -32 -9 -38 -11 -12 -61 -156 -61 -177 0 -9 -4 -17
-10 -17 -5 0 -10 -13 -10 -30 0 -16 -4 -30 -10 -30 -5 0 -10 -13 -10 -30 0
-16 -4 -30 -10 -30 -5 0 -10 -11 -10 -25 0 -14 -4 -33 -10 -43 -5 -9 -31 -82
-57 -162 -26 -80 -50 -147 -55 -148 -4 -2 -8 -8 -8 -13 0 -5 638 -8 1617 -7
l1617 3 258 1030 c141 567 256 1033 255 1037 -1 4 -51 -25 -112 -64 -395 -252
-838 -397 -1322 -433 l-83 -6 -2 133 c-2 209 3 371 14 392 6 11 21 30 34 43
13 13 24 29 24 35 0 6 -11 -1 -25 -16 -14 -15 -62 -58 -108 -97 -90 -76 -207
-181 -240 -216 -15 -17 -24 -20 -34 -12 -7 6 -13 19 -13 28 0 19 49 73 105
116 21 17 54 45 73 63 19 17 38 32 41 32 4 0 40 32 81 70 40 39 84 73 96 76
52 13 35 98 -26 129 -38 20 -103 90 -113 123 -16 53 -17 88 -2 124 8 21 13 39
10 39 -3 1 -9 2 -14 3 -5 0 -13 5 -18 10 -4 5 -3 6 4 2 18 -10 21 45 4 73 -15
23 -14 24 6 12 29 -15 28 -15 48 15 16 25 16 26 -5 19 -16 -5 -20 -4 -15 5 6
9 3 9 -14 1 -12 -7 -27 -21 -34 -31 -6 -11 -19 -20 -27 -20 -12 -1 -12 -3 3
-14 18 -14 23 -36 7 -36 -12 0 -26 -27 -34 -69 -6 -33 -6 -34 13 -17 19 17 19
17 14 -3 -3 -12 -9 -21 -13 -21 -9 0 -23 -50 -16 -58 3 -2 12 1 20 7 12 10 15
6 21 -21 4 -18 14 -46 23 -63 9 -16 14 -46 13 -65 -3 -32 -2 -33 16 -20 10 8
21 20 25 25 5 6 8 6 8 -2 0 -20 -12 -43 -20 -38 -4 2 -15 -4 -24 -14 -15 -16
-15 -19 -1 -31 8 -7 15 -22 15 -33 0 -18 5 -16 40 18 22 21 40 35 40 29 0 -5
-14 -22 -32 -39 -17 -16 -39 -46 -48 -67 -9 -20 -40 -60 -68 -88 -29 -28 -52
-54 -52 -59 0 -15 -138 -121 -143 -108 -3 8 -14 3 -34 -15 -16 -16 -34 -28
-41 -28 -7 0 -12 -6 -13 -12 0 -7 -2 -24 -3 -36 -2 -13 5 -33 15 -45 16 -20
20 -21 41 -8 21 13 22 13 9 -2 -15 -19 -43 -22 -69 -8 -16 9 -140 -24 -158
-42 -4 -4 -13 -7 -20 -7 -7 0 -25 -5 -41 -12 -15 -6 -30 -12 -33 -12 -3 -1
-18 -13 -33 -28 -16 -16 -31 -28 -35 -28 -14 0 -72 -62 -67 -71 4 -5 -3 -9
-14 -9 -11 0 -23 -4 -26 -10 -4 -6 10 -10 35 -10 23 0 39 -4 36 -9 -12 -19 25
-20 41 -1 10 11 20 20 23 20 9 0 11 -74 2 -95 -34 -77 -62 -127 -56 -100 3 16
9 32 13 35 9 6 44 120 39 126 -5 4 -58 -74 -58 -85 0 -5 -9 -18 -20 -31 -11
-13 -20 -33 -20 -45 0 -21 -29 -70 -30 -50 0 6 -9 -5 -21 -24 -14 -24 -17 -37
-10 -44 8 -8 11 -7 11 1 0 7 5 12 11 12 8 0 8 -5 -1 -15 -7 -8 -15 -13 -19
-11 -3 1 -15 -6 -25 -17 -19 -20 -19 -20 3 -14 14 3 21 1 18 -6 -2 -7 -13 -13
-25 -15 -12 -2 -22 -7 -22 -12 0 -4 -23 -8 -51 -8 -46 -1 -49 1 -38 16 21 27
23 28 16 10 -4 -10 -2 -18 3 -18 5 0 12 11 16 25 3 14 10 25 16 25 5 0 6 5 2
11 -5 8 -1 8 14 0 29 -15 30 -15 37 19 4 16 12 30 18 30 8 0 7 4 -1 12 -14 14
-16 55 -2 60 5 2 10 17 12 35 1 18 4 30 7 28 2 -3 13 20 24 51 10 30 17 58 14
61 -3 3 -16 -2 -29 -11 -13 -9 -21 -18 -18 -20 3 -3 1 -8 -4 -13 -5 -5 -6 -3
-2 5 4 6 2 12 -3 12 -6 0 -11 7 -11 15 0 8 -7 15 -15 15 -24 0 -17 15 13 27
26 11 26 11 3 12 -26 1 -123 93 -118 113 1 7 -17 13 -48 15 -79 5 -206 52
-262 96 -84 66 -126 142 -126 229 0 31 -4 55 -9 52 -10 -6 -44 -15 -85 -21
-32 -5 -32 -6 -28 -52 4 -43 1 -38 -11 17 -3 14 -11 22 -22 21 -40 -4 -40 -2
-37 125 1 68 6 130 11 138 5 7 9 20 11 28 8 57 15 80 25 80 6 0 8 3 5 6 -4 4
4 19 17 35 13 16 26 33 28 39 2 6 30 11 63 12 68 1 78 4 68 21 -8 12 -9 17
-12 37 0 6 -8 10 -16 10 -9 0 -15 10 -16 25 -2 44 -4 48 -16 52 -6 2 -14 -1
-18 -7 -6 -10 -85 66 -85 83 0 4 -11 23 -24 40 -37 49 -56 107 -52 160 1 26
-1 50 -6 53 -11 7 -10 24 2 24 6 0 10 -6 10 -14 0 -12 20 -26 36 -26 3 0 -4
14 -16 30 -12 17 -28 30 -36 30 -8 0 -13 4 -9 10 3 5 11 7 18 5 7 -3 26 4 42
15 17 11 39 25 50 32 11 7 25 20 31 28 11 13 16 12 40 -10 16 -14 22 -17 15
-7 -8 9 -11 21 -7 24 10 11 39 -10 51 -36 7 -15 17 -21 35 -19 17 2 31 -5 45
-22 11 -13 19 -27 18 -30 -1 -3 7 -11 18 -18 11 -7 19 -8 19 -2 0 5 16 10 35
10 19 0 35 -4 35 -10 0 -5 6 -10 14 -10 26 0 36 -30 40 -120 2 -51 14 -99 29
-117 5 -7 6 -13 2 -13 -7 0 36 -62 63 -89 7 -8 20 -24 29 -37 8 -13 22 -24 29
-24 8 0 14 -6 14 -14 0 -17 54 -58 64 -49 3 3 6 21 6 40 0 26 4 33 19 33 14 0
18 5 14 20 -3 11 -12 20 -19 20 -8 0 -14 6 -14 13 0 8 -9 22 -20 32 -10 9 -27
43 -36 74 -9 31 -20 61 -25 67 -43 53 -120 248 -90 230 6 -4 24 0 41 9 16 8
30 13 30 9 0 -3 10 0 23 8 12 8 47 24 77 36 30 11 69 28 85 37 l30 17 -34 -6
c-19 -3 -58 -17 -87 -31 -52 -25 -83 -33 -55 -16 13 8 13 14 1 38 -7 15 -14
36 -15 45 -1 10 -5 21 -10 25 -4 5 -5 -2 -2 -14 3 -13 1 -23 -3 -23 -5 0 -6
-16 -3 -35 4 -23 2 -35 -6 -35 -6 0 -11 -6 -11 -14 0 -16 -27 -29 -42 -19 -6
3 -8 1 -4 -5 3 -6 -7 -4 -24 4 -16 9 -30 21 -30 27 0 8 -3 8 -9 -1 -7 -11 -10
-10 -15 3 -3 9 -12 15 -19 12 -6 -2 -19 3 -27 12 -8 9 -26 17 -40 19 -14 2
-31 10 -39 17 -10 9 -21 11 -37 4 -17 -6 -24 -5 -25 4 0 6 -3 26 -6 42 -2 17
-5 38 -6 48 -1 9 -8 17 -17 17 -8 0 -21 10 -29 22 -12 19 -11 23 5 35 15 11
20 10 34 -2 22 -20 44 -5 27 19 -17 24 -46 15 -86 -26 -34 -35 -43 -62 -11
-33 11 10 20 13 20 7 0 -15 -41 -52 -57 -52 -20 0 -5 -49 24 -76 31 -29 29
-41 -7 -46 -21 -3 -30 0 -30 10 0 10 -10 13 -37 10 -57 -7 -123 -46 -136 -80
-3 -10 -11 -18 -17 -18 -15 0 -12 27 6 45 10 10 13 22 8 33 -4 9 -8 25 -9 36
-2 10 -10 23 -19 28 -25 14 -20 24 28 52 32 19 52 24 74 20 34 -7 77 13 109
50 13 14 26 26 31 26 4 0 16 15 26 33 10 17 13 26 5 20 -7 -7 -35 -13 -63 -13
-32 0 -56 -6 -68 -17 -15 -14 -22 -14 -42 -3 -14 7 -32 9 -43 5 -10 -4 -43 -9
-74 -10 -31 -2 -71 -10 -88 -19 -17 -9 -31 -13 -31 -10 0 4 -11 -3 -24 -15
-22 -21 -25 -21 -34 -5 -5 10 -23 18 -43 19 -19 1 -55 5 -80 9 -38 6 -47 5
-52 -8 -9 -22 -47 -21 -47 2 0 14 -10 18 -52 20 -29 2 -63 -3 -76 -10 -18 -9
-25 -9 -31 0 -10 16 -191 16 -191 0 0 -11 -38 -10 -44 1 -3 5 -74 9 -157 9
l-152 1 -38 -31 c-44 -35 -69 -33 -114 8 -27 25 -32 26 -156 26 -70 0 -132 -3
-138 -6 -6 -4 -46 -2 -88 3 -136 18 -188 18 -185 1 2 -8 0 -11 -5 -7 -4 5 -8
14 -8 20 0 7 -9 13 -20 14 -11 1 -54 5 -96 10 -42 5 -90 5 -108 0 -20 -5 -37
-4 -45 2 -14 12 -113 18 -122 8 -4 -3 -15 -2 -25 3 -11 6 -19 6 -21 0 -2 -5
-19 -6 -43 0 -74 16 -120 19 -132 8 -9 -7 -17 -7 -25 -1 -7 6 -34 13 -60 16
l-48 7 0 -565z m1940 425 c0 -5 -4 -10 -10 -10 -5 0 -10 5 -10 10 0 6 5 10 10
10 6 0 10 -4 10 -10z m580 -60 c0 -5 -2 -10 -4 -10 -3 0 -8 5 -11 10 -3 6 -1
10 4 10 6 0 11 -4 11 -10z m384 -34 c-3 -8 -1 -17 5 -21 6 -3 11 -11 11 -16 0
-6 -4 -7 -10 -4 -11 7 -24 -39 -17 -60 4 -8 2 -17 -2 -20 -12 -7 -23 24 -14
37 3 7 1 8 -5 4 -7 -4 -12 -3 -12 3 0 5 5 13 10 16 6 3 10 22 10 41 0 23 5 34
15 34 8 0 12 -6 9 -14z m-327 -88 c-3 -8 -6 -5 -6 6 -1 11 2 17 5 13 3 -3 4
-12 1 -19z m423 -38 c0 -5 -12 -10 -27 -9 -25 0 -26 1 -8 9 27 12 35 12 35 0z
m-384 -96 c-4 -9 -9 -15 -11 -12 -3 3 -3 13 1 22 4 9 9 15 11 12 3 -3 3 -13
-1 -22z m-6 -100 c0 -8 -4 -12 -10 -9 -5 3 -10 13 -10 21 0 8 5 12 10 9 6 -3
10 -13 10 -21z m-150 -34 c0 -5 -7 -10 -15 -10 -8 0 -15 5 -15 10 0 6 7 10 15
10 8 0 15 -4 15 -10z m-400 -50 c0 -5 -7 -10 -15 -10 -8 0 -15 5 -15 10 0 6 7
10 15 10 8 0 15 -4 15 -10z m495 -20 c0 -22 -29 -18 -33 3 -3 14 1 18 15 15
10 -2 18 -10 18 -18z m-450 -61 c0 -7 -8 -15 -17 -17 -18 -3 -25 18 -11 32 10
10 28 1 28 -15z m-465 -70 c0 -5 -7 -9 -15 -9 -15 0 -20 12 -9 23 8 8 24 -1
24 -14z m524 -26 c8 -20 -19 -44 -40 -36 -14 5 -19 35 -7 46 12 13 41 7 47
-10z m-984 -43 c0 -5 -4 -10 -10 -10 -5 0 -10 5 -10 10 0 6 5 10 10 10 6 0 10
-4 10 -10z m448 -43 c4 -20 -25 -34 -40 -19 -15 15 -1 44 19 40 10 -2 19 -11
21 -21z m-872 -22 c7 -27 0 -55 -13 -55 -4 0 -16 12 -26 26 -15 20 -16 28 -7
39 19 23 39 18 46 -10z m344 -65 c0 -13 -7 -20 -20 -20 -19 0 -27 20 -13 33
13 14 33 6 33 -13z m1135 -25 c0 -24 -5 -31 -24 -33 -32 -5 -54 23 -40 50 7
13 19 18 37 16 23 -2 27 -8 27 -33z m-1667 -56 c-2 -6 -8 -10 -13 -10 -5 0
-11 4 -13 10 -2 6 4 11 13 11 9 0 15 -5 13 -11z m1037 -34 c0 -22 -31 -33 -47
-17 -17 17 -1 44 24 40 15 -2 23 -10 23 -23z m976 -275 c9 0 19 -7 22 -15 7
-15 0 -179 -9 -232 -2 -18 0 -42 6 -52 6 -12 6 -22 1 -26 -17 -10 -24 -113
-11 -145 9 -22 9 -34 1 -43 -6 -8 -8 -34 -6 -61 3 -27 1 -64 -5 -84 -6 -25 -6
-40 2 -49 6 -7 6 -13 1 -13 -11 0 -38 50 -34 63 1 5 -4 5 -10 1 -9 -5 -10 -2
-6 10 4 10 3 15 -3 11 -6 -3 -10 -15 -10 -26 0 -10 -4 -19 -10 -19 -5 0 -10
11 -10 25 0 14 5 25 10 25 6 0 10 11 10 24 0 14 5 37 11 53 14 37 39 192 44
273 2 36 6 99 9 140 4 50 2 70 -4 60 -9 -13 -10 -13 -11 0 0 10 -3 9 -10 -5
-7 -16 -8 -13 -5 15 2 19 -1 48 -5 64 -7 23 -6 27 3 18 7 -7 20 -12 29 -12z
m161 -125 c3 -13 2 -22 -2 -20 -4 3 -11 -21 -15 -52 -11 -90 -45 -186 -100
-282 -12 -21 -13 -22 -17 -5 -6 28 3 59 12 44 5 -8 10 -1 15 19 3 17 10 31 15
31 5 0 12 15 15 33 4 17 11 37 15 42 4 6 13 46 20 90 15 102 20 125 30 125 4
0 10 -11 12 -25z m-169 -75 c-3 -11 -7 -20 -9 -20 -2 0 -4 9 -4 20 0 11 4 20
9 20 5 0 7 -9 4 -20z m327 -164 c0 -3 -4 -8 -10 -11 -5 -3 -10 -1 -10 4 0 6 5
11 10 11 6 0 10 -2 10 -4z m-27 -37 c-8 -70 -26 -187 -30 -199 -8 -20 -12 -37
-19 -83 -3 -20 -10 -40 -15 -43 -5 -3 -9 -15 -9 -27 0 -12 -9 -47 -20 -77 -11
-30 -20 -57 -20 -59 0 -3 -5 0 -11 6 -8 8 -7 17 5 34 9 13 16 32 16 41 0 10 4
26 10 36 16 29 69 299 69 355 1 27 5 37 14 34 6 -2 11 -10 10 -18z m31 -4 c-4
-8 -8 -15 -10 -15 -2 0 -4 7 -4 15 0 8 4 15 10 15 5 0 7 -7 4 -15z m330 -70
c2 -7 -3 -12 -12 -11 -12 1 -18 -10 -23 -42 -6 -44 7 -62 43 -62 8 0 22 -6 32
-13 15 -11 16 -18 8 -33 -6 -10 -14 -32 -17 -48 -5 -23 -9 -26 -15 -16 -5 8
-12 12 -15 8 -3 -3 2 -13 11 -23 14 -14 15 -21 6 -36 -7 -10 -12 -28 -12 -39
0 -18 -8 -24 -27 -17 -5 1 -7 4 -7 7 1 3 5 24 9 46 6 39 5 42 -19 46 -18 4
-26 1 -26 -9 0 -7 -4 -21 -9 -31 -5 -9 -17 -51 -26 -92 -16 -70 -41 -127 -51
-117 -4 4 9 52 26 92 22 55 41 138 36 159 -3 13 3 39 14 62 12 23 16 40 10 42
-15 5 -12 29 4 35 17 7 27 87 10 87 -22 0 -32 -25 -44 -110 -7 -47 -16 -90
-21 -96 -5 -6 -11 -36 -15 -67 -4 -33 -12 -58 -21 -61 -10 -4 -11 -1 -5 12 5
9 12 35 16 57 4 22 9 54 12 70 4 24 3 27 -6 15 -9 -12 -10 -5 -7 29 3 24 11
49 17 55 10 8 11 3 8 -22 -3 -18 -1 -29 3 -25 5 5 10 41 12 82 2 40 9 76 15
80 18 11 80 1 86 -14z m36 -11 c0 -9 12 -27 26 -39 22 -19 23 -23 10 -35 -9
-7 -16 -19 -16 -27 0 -10 -5 -11 -17 -5 -12 7 -17 25 -18 66 -1 31 2 56 7 56
4 0 8 -7 8 -16z m390 6 c0 -5 -2 -10 -4 -10 -3 0 -8 5 -11 10 -3 6 -1 10 4 10
6 0 11 -4 11 -10z m-584 -47 c-5 -11 -10 -13 -17 -6 -7 7 -7 17 3 32 10 18 14
19 16 6 2 -9 1 -23 -2 -32z m564 26 c0 -6 -4 -7 -10 -4 -5 3 -10 11 -10 16 0
6 5 7 10 4 6 -3 10 -11 10 -16z m-528 -51 c-8 -8 -9 -4 -5 13 4 13 8 18 11 10
2 -7 -1 -18 -6 -23z m-615 0 c-3 -8 -6 -5 -6 6 -1 11 2 17 5 13 3 -3 4 -12 1
-19z m836 -23 c-3 -9 -8 -14 -10 -11 -3 3 -2 9 2 15 9 16 15 13 8 -4z m-303
-35 c0 -5 9 -10 20 -10 17 0 19 -4 14 -27 -11 -46 -22 -54 -49 -37 -12 8 -29
12 -38 8 -14 -5 -13 0 4 35 17 37 49 57 49 31z m482 -132 c-8 -8 -9 -4 -5 13
4 13 8 18 11 10 2 -7 -1 -18 -6 -23z m-992 -21 c0 -6 10 -22 23 -35 12 -14 16
-22 10 -18 -19 11 -16 -11 9 -66 12 -26 25 -44 28 -38 4 7 15 3 30 -10 13 -11
26 -20 30 -20 3 0 24 -16 46 -35 28 -26 34 -35 21 -35 -10 0 -29 7 -43 16 -13
9 -27 14 -31 10 -3 -3 -1 -6 6 -6 7 0 17 -13 22 -29 8 -21 19 -32 40 -36 36
-8 47 -29 26 -50 -17 -17 -47 -20 -47 -5 0 6 -7 10 -15 10 -17 0 -30 42 -21
67 9 23 -15 35 -30 15 -18 -24 -46 -5 -62 44 -7 21 -24 50 -38 65 -28 29 -31
44 -7 35 16 -6 16 -6 0 12 -10 11 -18 40 -20 73 -2 30 -7 62 -12 70 -5 8 1 5
13 -5 12 -11 22 -24 22 -29z m88 -25 c1 -26 1 -26 -13 -8 -8 11 -15 16 -15 11
0 -4 -2 -6 -5 -3 -3 3 -3 12 1 21 9 24 29 10 32 -21z m20 -34 c-3 -7 5 -20 16
-30 20 -16 20 -17 2 -14 -11 2 -27 13 -35 26 -10 15 -11 21 -3 16 6 -4 12 -2
12 3 0 6 3 11 6 11 3 0 4 -6 2 -12z m-28 -41 l25 -32 -32 23 c-18 13 -33 28
-33 33 0 17 15 8 40 -24z m460 -41 c0 -2 -8 -10 -17 -17 -16 -13 -17 -12 -4 4
13 16 21 21 21 13z m343 -36 c-3 -11 -10 -20 -15 -20 -5 0 -18 -20 -29 -45
-11 -24 -24 -47 -29 -50 -5 -3 -3 -23 6 -47 8 -23 12 -43 10 -46 -3 -2 -1 -14
4 -27 12 -33 -13 -179 -46 -260 -8 -19 -8 -19 -15 5 l-7 25 -1 -27 c-1 -15 -5
-30 -11 -33 -5 -3 -10 -14 -10 -24 0 -10 -7 -32 -15 -47 l-16 -29 6 35 c3 19
7 50 9 68 3 30 2 32 -14 17 -24 -22 -40 -19 -40 8 0 23 -2 23 -47 17 -47 -7
-83 -3 -83 9 0 9 -37 7 -46 -2 -10 -10 -68 -9 -79 2 -13 11 -149 31 -174 24
-10 -2 -22 0 -25 6 -4 6 -16 11 -27 11 -11 0 -17 5 -14 10 3 6 17 10 31 10 26
0 28 3 15 28 -8 16 0 17 92 14 190 -7 216 -6 282 13 59 16 144 91 145 128 0 9
5 17 10 17 15 0 12 46 -3 58 -9 8 -24 7 -52 -3 -48 -17 -68 -19 -60 -5 4 6 -9
10 -32 10 -63 0 -67 16 -5 19 94 5 102 6 125 30 l22 23 -32 -16 c-30 -15 -101
-28 -153 -28 -46 0 -210 25 -215 32 -2 4 21 3 52 -2 35 -5 59 -5 62 1 4 5 59
12 123 15 65 3 125 9 135 14 10 6 23 11 28 11 19 3 114 51 120 61 11 18 23 11
18 -10z m-643 -26 c9 -9 10 -14 2 -14 -17 0 -82 33 -82 41 0 11 62 -11 80 -27z
m324 -26 c-3 -4 -11 -5 -19 -1 -21 7 -19 12 4 10 11 0 18 -5 15 -9z m-247 -24
c-3 -3 -12 -4 -19 -1 -8 3 -5 6 6 6 11 1 17 -2 13 -5z m400 -98 c-74 -69 -129
-90 -147 -56 -10 19 -5 23 47 35 30 7 92 31 99 38 4 4 12 7 17 7 6 0 -2 -11
-16 -24z m-500 -222 c-3 -3 -12 -4 -19 -1 -8 3 -5 6 6 6 11 1 17 -2 13 -5z"/>
<path d="M2582 1460 c0 -14 2 -19 5 -12 2 6 2 18 0 25 -3 6 -5 1 -5 -13z"/>
<path d="M3216 1434 c-8 -21 -8 -49 0 -41 4 3 15 2 25 -4 16 -8 21 -6 28 13 7
17 5 26 -7 36 -22 16 -39 15 -46 -4z"/>
<path d="M3350 1010 c-9 -6 -10 -10 -3 -10 6 0 15 5 18 10 8 12 4 12 -15 0z"/>
<path d="M3310 980 c-9 -6 -10 -10 -3 -10 6 0 15 5 18 10 8 12 4 12 -15 0z"/>
<path d="M3340 3415 c-7 -8 -21 -15 -31 -15 -10 0 -20 -4 -23 -9 -8 -12 -45
-21 -51 -12 -2 4 1 8 8 8 20 1 83 32 66 33 -28 0 -89 -30 -86 -42 5 -28 21
-35 47 -22 14 7 45 18 70 25 56 16 55 15 40 34 -16 19 -24 19 -40 0z"/>
<path d="M3405 3420 c3 -5 8 -10 11 -10 2 0 4 5 4 10 0 6 -5 10 -11 10 -5 0
-7 -4 -4 -10z"/>
<path d="M5245 3380 c-90 -56 -244 -119 -352 -145 -67 -16 -73 -19 -73 -42 0
-25 2 -25 46 -19 70 9 251 73 324 113 103 57 170 107 167 123 -4 27 -31 20
-112 -30z"/>
<path d="M3436 3405 c4 -8 11 -15 16 -15 6 0 5 6 -2 15 -7 8 -14 15 -16 15 -2
0 -1 -7 2 -15z"/>
<path d="M3620 3393 c0 -5 7 -26 14 -48 17 -49 47 -61 41 -17 -5 41 -23 72
-40 72 -8 0 -15 -3 -15 -7z"/>
<path d="M3716 3375 c24 -39 24 -40 24 -28 0 6 -9 21 -21 34 l-20 24 17 -30z"/>
<path d="M3951 3354 c0 -11 3 -14 6 -6 3 7 2 16 -1 19 -3 4 -6 -2 -5 -13z"/>
<path d="M4110 3367 c0 -14 59 -37 65 -26 4 6 5 12 3 15 -8 7 -68 17 -68 11z"/>
<path d="M3165 3343 c-5 -14 19 -42 38 -43 4 0 10 0 15 0 4 0 8 9 8 20 1 11
-3 17 -7 14 -5 -3 -9 -1 -9 4 0 17 -38 21 -45 5z"/>
<path d="M3730 3316 c0 -8 -8 -21 -17 -28 -19 -14 -51 -64 -36 -55 4 2 24 11
43 19 19 8 49 21 65 28 17 8 35 13 42 11 6 -1 14 3 17 8 9 14 -53 25 -68 12
-11 -9 -18 -8 -30 4 -14 14 -16 14 -16 1z"/>
<path d="M3132 3288 c-10 -36 5 -89 26 -96 8 -2 8 9 -2 42 -8 26 -12 55 -9 66
3 11 3 20 -1 20 -3 0 -9 -15 -14 -32z"/>
<path d="M3604 3296 c0 -17 4 -22 18 -18 18 4 18 6 2 23 -21 23 -20 24 -20 -5z"/>
<path d="M2820 3265 c-7 -9 -11 -18 -8 -20 3 -3 11 1 18 10 7 9 11 18 8 20 -3
3 -11 -1 -18 -10z"/>
<path d="M3202 3255 c-10 -12 -10 -20 3 -44 19 -38 19 -55 0 -47 -9 3 -15 0
-15 -10 0 -9 -5 -12 -12 -8 -7 4 -5 -2 5 -13 9 -11 14 -23 10 -28 -5 -4 2 -3
14 4 12 6 25 16 28 21 3 6 11 10 18 10 6 0 3 -6 -7 -13 -18 -13 -18 -14 -1
-21 32 -12 36 8 15 70 -12 32 -22 66 -24 73 -4 21 -19 23 -34 6z"/>
<path d="M3530 3179 c0 -5 5 -7 10 -4 6 3 10 8 10 11 0 2 -4 4 -10 4 -5 0 -10
-5 -10 -11z"/>
<path d="M3617 3120 c3 -11 12 -20 20 -20 11 0 11 4 3 20 -6 11 -15 20 -19 20
-5 0 -7 -9 -4 -20z"/>
<path d="M6157 3102 c-51 -56 -48 -186 7 -231 27 -22 30 -5 7 42 -26 54 -27
102 -1 150 30 55 22 78 -13 39z"/>
<path d="M6380 3110 c0 -6 10 -24 22 -40 16 -22 22 -44 22 -80 0 -36 -6 -58
-22 -80 -27 -35 -28 -53 -4 -48 9 2 27 23 40 48 28 54 25 122 -8 176 -20 32
-50 46 -50 24z"/>
<path d="M6196 3046 c-9 -19 -16 -44 -16 -55 0 -35 28 -91 44 -91 20 0 20 19
1 44 -19 25 -19 53 0 90 19 35 19 46 1 46 -7 0 -21 -15 -30 -34z"/>
<path d="M6336 3071 c-3 -4 1 -17 9 -27 19 -25 19 -85 0 -110 -19 -24 -19 -34
0 -34 23 0 47 47 47 91 -1 56 -38 110 -56 80z"/>
<path d="M6268 3019 c-37 -21 -9 -77 32 -64 22 7 27 44 8 63 -14 14 -18 14
-40 1z"/>
<path d="M6272 2873 c4 -81 28 -85 28 -4 0 48 -3 61 -15 61 -13 0 -15 -11 -13
-57z"/>
<path d="M3711 2855 c12 -19 19 -35 16 -35 -3 0 -2 -13 3 -30 6 -22 5 -34 -6
-45 -15 -15 -10 -40 6 -30 5 3 11 1 14 -4 3 -5 -1 -12 -9 -15 -13 -4 -13 -9
-3 -25 7 -11 15 -18 20 -15 10 7 -2 -79 -13 -91 -5 -5 -9 -17 -9 -27 0 -10 -9
-26 -20 -35 -11 -10 -20 -21 -20 -24 0 -9 27 -6 36 4 4 4 20 7 36 7 29 0 68
30 68 53 0 8 3 7 9 -2 8 -12 11 -9 17 14 4 17 2 36 -5 47 -15 24 -25 116 -11
102 5 -5 11 -25 13 -44 3 -19 7 -34 11 -32 9 3 9 3 29 7 11 2 17 -3 17 -16 0
-10 -5 -19 -11 -19 -5 0 -8 4 -4 9 3 5 0 13 -6 16 -7 5 -10 0 -7 -11 2 -11 10
-19 18 -19 8 0 21 -4 28 -9 7 -4 25 -5 38 -2 19 5 24 3 18 -5 -4 -7 -3 -10 2
-7 5 4 25 9 45 12 55 8 87 23 98 45 13 23 14 42 2 23 -4 -7 -14 -15 -22 -16
-8 -2 -36 -13 -62 -24 -27 -12 -50 -22 -51 -22 -2 0 -3 12 -4 28 -2 39 -9 67
-23 94 -7 13 -14 29 -15 37 -3 17 -24 39 -24 25 0 -6 3 -14 7 -18 9 -9 14 -33
18 -83 1 -22 5 -46 9 -51 3 -5 -1 -12 -9 -16 -8 -3 -14 -2 -13 2 3 10 -12 73
-22 97 -4 11 -11 28 -14 38 -6 17 -7 17 -23 2 -15 -15 -17 -15 -25 -1 -5 9
-13 14 -19 11 -5 -4 -9 -3 -9 2 0 9 61 39 72 36 3 -2 9 4 12 13 5 12 2 12 -15
4 -11 -6 -25 -9 -32 -7 -7 2 -25 -3 -40 -12 -27 -15 -29 -15 -40 4 -6 11 -9
21 -6 21 9 3 -37 47 -63 60 l-27 14 20 -35z"/>
<path d="M4659 2868 c-12 -28 -71 -68 -101 -69 l-23 0 24 -10 c35 -14 95 23
109 67 12 39 7 45 -9 12z"/>
<path d="M4025 2850 c-3 -5 -16 -10 -28 -10 -12 -1 -33 -8 -47 -16 l-25 -15
25 6 c14 4 32 7 40 7 23 2 79 38 58 38 -9 0 -20 -4 -23 -10z"/>
<path d="M4575 2830 c-3 -5 -2 -10 4 -10 5 0 13 5 16 10 3 6 2 10 -4 10 -5 0
-13 -4 -16 -10z"/>
<path d="M2965 2780 c-22 -16 -44 -29 -49 -30 -14 0 -88 -81 -81 -88 3 -3 11
3 19 13 7 10 18 15 24 11 8 -5 12 0 12 12 0 21 39 52 64 52 8 0 24 14 36 30
26 37 25 37 -25 0z"/>
<path d="M3040 2801 c0 -6 4 -13 10 -16 6 -3 7 1 4 9 -7 18 -14 21 -14 7z"/>
<path d="M3080 2789 c0 -5 5 -7 10 -4 6 3 10 8 10 11 0 2 -4 4 -10 4 -5 0 -10
-5 -10 -11z"/>
<path d="M6260 2775 c-6 -8 -9 -23 -5 -35 8 -25 51 -27 64 -2 20 38 -31 71
-59 37z"/>
<path d="M3114 2748 c8 -13 24 -41 36 -63 l22 -40 -6 35 c-4 18 -10 36 -15 40
-4 3 -11 15 -15 28 -4 12 -14 22 -22 22 -13 0 -13 -3 0 -22z"/>
<path d="M6136 2751 c-11 -17 53 -28 88 -15 9 3 16 10 16 15 0 12 -97 12 -104
0z"/>
<path d="M6343 2748 c2 -8 21 -13 47 -13 26 0 45 5 48 13 2 8 -11 12 -48 12
-37 0 -50 -4 -47 -12z"/>
<path d="M4479 2698 c26 -38 80 -88 96 -88 3 0 1 9 -5 20 -6 11 -19 20 -30 20
-12 0 -29 15 -44 39 -14 22 -30 42 -36 46 -5 3 3 -13 19 -37z"/>
<path d="M4732 2651 c-13 -19 -28 -28 -37 -25 -8 3 -22 -1 -31 -11 -15 -15
-15 -16 7 -12 69 12 90 20 77 28 -11 8 -11 11 1 18 7 5 12 14 10 20 -3 7 -14
-1 -27 -18z"/>
<path d="M4265 2650 c-3 -5 -1 -10 4 -10 6 0 11 5 11 10 0 6 -2 10 -4 10 -3 0
-8 -4 -11 -10z"/>
<path d="M3447 2623 c13 -36 28 -50 46 -44 17 6 17 8 -3 34 -24 31 -53 37 -43
10z"/>
<path d="M3529 2611 c7 -12 9 -25 6 -30 -3 -5 -1 -21 5 -35 10 -27 4 -56 -12
-56 -5 0 -8 6 -7 13 4 32 -2 46 -16 41 -19 -8 -16 -34 7 -55 10 -9 15 -19 11
-23 -3 -3 1 -6 11 -6 9 0 15 4 11 9 -3 5 -1 12 4 16 5 3 14 -2 19 -11 8 -14
12 -14 46 4 25 13 32 21 22 25 -8 3 -20 -1 -26 -8 -9 -11 -17 -12 -31 -4 -11
5 -17 14 -14 19 7 11 -24 108 -37 116 -6 4 -5 -3 1 -15z"/>
<path d="M3721 2614 c0 -11 3 -14 6 -6 3 7 2 16 -1 19 -3 4 -6 -2 -5 -13z"/>
<path d="M2961 2580 c13 -25 19 -45 21 -68 1 -7 6 -11 12 -9 18 6 6 50 -21 77
l-25 25 13 -25z"/>
<path d="M2917 2563 c-8 -8 16 -43 29 -43 16 0 6 37 -11 44 -7 2 -15 2 -18 -1z"/>
<path d="M3436 2542 c-2 -4 -1 -14 4 -22 7 -11 9 -9 7 8 -1 24 -3 26 -11 14z"/>
<path d="M3681 2531 c-11 -11 -23 -16 -27 -13 -4 4 -4 1 0 -6 6 -11 12 -9 28
7 10 12 24 18 30 15 7 -4 8 -2 4 4 -10 16 -13 15 -35 -7z"/>
<path d="M3797 2486 c-37 -11 -37 -12 -22 -34 9 -12 23 -21 30 -20 8 2 21 -6
29 -17 14 -19 15 -16 11 29 -2 26 -5 49 -7 51 -2 1 -20 -3 -41 -9z"/>
<path d="M4545 2421 c-3 -6 -11 -9 -16 -6 -5 4 -9 2 -9 -3 0 -17 28 -21 34 -5
8 19 1 29 -9 14z"/>
<path d="M3287 2370 c-19 -16 -39 -30 -43 -30 -5 0 -23 -14 -39 -32 -17 -18
-24 -28 -17 -24 21 12 90 14 155 4 54 -8 60 -7 77 14 16 21 17 23 1 34 -9 6
-31 15 -50 19 -23 5 -30 10 -20 15 7 5 17 6 21 4 4 -3 8 2 8 10 0 28 -56 19
-93 -14z"/>
<path d="M3523 1527 c2 -7 -1 -23 -8 -37 -7 -14 -15 -42 -19 -62 -4 -21 -11
-38 -16 -38 -6 0 -10 -8 -10 -18 0 -10 -5 -23 -11 -29 -6 -6 -9 -19 -6 -29 4
-16 5 -15 6 4 0 12 6 22 11 22 6 0 10 8 10 18 0 10 9 28 21 40 13 14 19 33 17
50 -2 21 1 27 17 27 40 0 46 35 9 52 -19 9 -24 9 -21 0z"/>
<path d="M3380 1204 c0 -8 5 -12 10 -9 6 4 8 11 5 16 -9 14 -15 11 -15 -7z"/>
</g>
</svg>
