<svg xmlns="http://www.w3.org/2000/svg" viewBox="0 0 136.68 136.83"><g id="b1061cdc-44a7-4cf6-9cae-d6d7e607e209" data-name="Capa 2"><g id="a7cc054a-bd74-4383-a07d-9b3fc17d2df4" data-name="Capa 1"><path d="M71.05,136.8a71.54,71.54,0,0,1-22.67-3,68,68,0,0,1-39.59-31.7A67.15,67.15,0,0,1,1,80.94,73.49,73.49,0,0,1,.3,61.68,64.24,64.24,0,0,1,5.46,41.39a65.17,65.17,0,0,1,10.41-16.9A69.37,69.37,0,0,1,34.24,9.08,70.38,70.38,0,0,1,55,1.3,66.8,66.8,0,0,1,73.36.2,66,66,0,0,1,106,11.45C121.91,22.2,131.71,37,135.49,55.83a59.09,59.09,0,0,1,1.17,13.53c-.64,19.89-8.15,36.68-23,50.09a68.84,68.84,0,0,1-22.65,13.47c0-3.27,0-6.53,0-9.8q0-14.93,0-29.86c0-.74-.28-1.62,1.06-1.62,4,0,8-.13,12-.18,1.08,0,2.3.63,3.19,0s.6-2.1.76-3.19c.68-4.77,1.29-9.56,2-14.33.18-1.29-.16-1.72-1.53-1.7-5.35.08-10.7,0-16,0-1,0-1.42-.2-1.4-1.31.06-4.06,0-8.12,0-12.18s2.21-6.87,6.09-7.61a17.26,17.26,0,0,1,3.53-.37c3,0,6,0,9.06,0,.73,0,1.21-.1,1.2-1,0-5.2,0-10.4,0-15.6,0-.74-.22-1.07-1-1.09-5.91-.15-11.81-1-17.74-.32-6.12.68-11.45,2.93-15.5,7.71-3.42,4-4.94,8.83-5.4,14-.47,5.34-.22,10.69-.22,16,0,1.33-.29,1.8-1.7,1.77-4.41-.09-8.82,0-13.22,0-.61,0-1.39-.21-1.5.76a14,14,0,0,0-.22,2.8c.39,4.25.1,8.51.17,12.76,0,2.85,0,2.84,2.93,2.85,4,0,7.92.08,11.88.07,1.37,0,1.66.6,1.66,1.89C71,107.88,71.05,122.34,71.05,136.8Z" style="fill:#1f3e80"/></g></g></svg>