<svg xmlns="http://www.w3.org/2000/svg" viewBox="0 0 147.12 118.23"><g id="b40dbf10-ad07-4e86-ad5d-940a9ac18466" data-name="Capa 2"><g id="bdfb453f-19da-478f-b69f-30904e56a141" data-name="Capa 1"><path d="M76.7,0c.88.05,1.76.09,2.64.16,4.69.37,9.4.66,14.08,1.16a109,109,0,0,1,17.07,3.31,90.39,90.39,0,0,1,23.07,9.42,40.56,40.56,0,0,1,9.9,7.93c1.76,2,3.3,4.2,3.55,7a46.81,46.81,0,0,1,0,6,31.62,31.62,0,0,1-1.43,9.1c-1.93,5.57-5.89,8.37-11.68,8.77-4.48.31-8.82-.57-13.14-1.59a22.71,22.71,0,0,1-7.94-3.34,10.64,10.64,0,0,1-4.62-8.13,55.85,55.85,0,0,1-.23-7.43c.12-2.93-1.37-4.69-3.73-6a29.34,29.34,0,0,0-9.66-2.95,138.26,138.26,0,0,0-27-1.28c-4.92.2-9.84.7-14.74,1.26a28.05,28.05,0,0,0-9.62,2.77,14.62,14.62,0,0,0-2,1.24c-1.8,1.33-2.22,3.19-2.2,5.33a55.69,55.69,0,0,1-.31,7.75c-.59,4.45-3.36,7.28-7.36,9a35.53,35.53,0,0,1-9.58,2.65,61.26,61.26,0,0,1-7.38.73,14.05,14.05,0,0,1-7.9-2C3.33,48.81,1.75,45.62.9,42A48.67,48.67,0,0,1,.07,29.26,10.63,10.63,0,0,1,2.66,23.2a36.2,36.2,0,0,1,9.92-8.53A80.29,80.29,0,0,1,34.42,5.31C39.11,4,43.86,2.92,48.64,2.08,53,1.31,57.48.93,61.92.5,64.61.24,67.31.22,70,.08a1.77,1.77,0,0,0,.4-.08Z" style="fill:#1f3e80"/><path d="M73.57,118.22q-18.57,0-37.15,0c-2.48,0-5,0-7.44-.17a14.39,14.39,0,0,1-12.56-11.53,22,22,0,0,1,.18-7.63L19.21,81c.3-2.07.44-4.18.94-6.2a11.73,11.73,0,0,1,9-8.88A52.78,52.78,0,0,0,39.88,62c7.56-4,11.93-10.22,13.44-18.54.26-1.44.41-2.89.54-4.35a1,1,0,0,1,1-1.08,96.46,96.46,0,0,1,14-1c4.65,0,9.31,0,14,.19,3.08.12,6.14.58,9.22.81.92.07,1.16.45,1.22,1.32.41,5.49,1.78,10.68,5.09,15.21a25.68,25.68,0,0,0,11.46,8.65,69.21,69.21,0,0,0,8.23,2.65,12.33,12.33,0,0,1,9.2,10.34q1.77,12.45,3.57,24.91a14.73,14.73,0,0,1-10,16.4,20.36,20.36,0,0,1-6.46.7c-7.61,0-15.22,0-22.84,0ZM92.21,81.1A18.67,18.67,0,1,0,74.66,99.64,18.52,18.52,0,0,0,92.21,81.1Z" style="fill:#1f3e80"/></g></g></svg>