<svg xmlns="http://www.w3.org/2000/svg" viewBox="0 0 137.78 138.84"><g id="b78bf216-5e80-4f2f-bced-014157c23132" data-name="Capa 2"><g id="be2450fb-6e84-4f69-bcef-298de6cc4db4" data-name="Capa 1"><path d="M70.14,0A67.63,67.63,0,0,0,12.21,102.55L0,138.84l37.45-12A67.64,67.64,0,1,0,70.14,0Zm0,123.93a56,56,0,0,1-31-9.31l-21.64,6.93,7-20.91a56.29,56.29,0,1,1,45.58,23.29ZM101.85,83c-1.69-.93-10-5.42-11.58-6.06s-2.7-1-3.92.72-4.67,5.45-5.72,6.56-2.06,1.22-3.76.29a47.31,47.31,0,0,1-13.56-9.08,52,52,0,0,1-9.16-12.32c-.94-1.77,0-2.67.89-3.49s1.8-2,2.7-2.93a11.94,11.94,0,0,0,1.84-2.81,3.18,3.18,0,0,0,0-3c-.4-.88-3.54-9.51-4.85-13s-2.76-3-3.77-3-2.15-.23-3.31-.27a6.34,6.34,0,0,0-4.68,2A19.33,19.33,0,0,0,36.36,50.7c-.32,8.49,5.56,16.93,6.38,18.11S54,88.41,71.25,96s17.39,5.27,20.56,5.1,10.37-3.8,12-7.77,1.72-7.44,1.32-8.17S103.55,83.93,101.85,83Z" style="fill:#1f3e80;fill-rule:evenodd"/></g></g></svg>