<svg xmlns="http://www.w3.org/2000/svg"  width="24" height="24" viewBox="0 0 24 24"><g id="ab54ff30-1f27-4086-ac4c-1baaf23f8a71" data-name="Capa 2"><g id="a40c6227-ae09-4e37-a3b6-0e64a97a66ea" data-name="Capa 1"><path d="M47,20.86a30,30,0,0,1-1.56,9.33,54.66,54.66,0,0,1-4.74,10.38c-1.4,2.42-2.92,4.75-4.55,7q-2.85,3.94-6,7.63c-1.3,1.49-2.62,3-4,4.37-.19.2-.29.23-.51,0-1.64-1.68-3.19-3.43-4.71-5.22-1.38-1.63-2.71-3.31-4-5a90.89,90.89,0,0,1-5.78-8.64A54.53,54.53,0,0,1,6.24,30,31.19,31.19,0,0,1,4.8,23.31,21.37,21.37,0,0,1,6.29,13.12,20.8,20.8,0,0,1,10,7.21,20.62,20.62,0,0,1,22.07.36,21.1,21.1,0,0,1,43.3,9.2a20.92,20.92,0,0,1,3.5,9A16,16,0,0,1,47,20.86ZM25.84,8a12.94,12.94,0,1,0,13,13A12.93,12.93,0,0,0,25.84,8Z" style="fill:#27e0ee"/><path d="M27.68,64.47c.69,0,2.05-.06,3.4-.15s2.69-.23,4-.42a32.36,32.36,0,0,0,6.22-1.4,10.05,10.05,0,0,0,2.24-1.08,2.9,2.9,0,0,0,1-1,1.35,1.35,0,0,0-.11-1.49,4.59,4.59,0,0,0-1.72-1.37,21.28,21.28,0,0,0-5-1.69c-1-.24-2.08-.43-3.13-.59-.32,0-.32-.08-.12-.33.53-.66,1.07-1.32,1.59-2,.16-.2.33-.12.5-.1,1,.18,2,.36,3,.59a32.26,32.26,0,0,1,7.09,2.42,12.86,12.86,0,0,1,3.57,2.46,4.81,4.81,0,0,1,1.52,3,3.85,3.85,0,0,1-.52,2.22,8.3,8.3,0,0,1-2.89,2.82,25,25,0,0,1-6.75,2.85c-1.45.4-2.91.74-4.39,1-1.7.3-3.42.53-5.14.69a66.88,66.88,0,0,1-7.35.27,71.17,71.17,0,0,1-7.15-.51A48.83,48.83,0,0,1,9.84,69.1a23.74,23.74,0,0,1-6.61-2.88A8.5,8.5,0,0,1,.77,63.9a4,4,0,0,1,.25-5A11.48,11.48,0,0,1,4.73,56a29.14,29.14,0,0,1,6.21-2.3c1.49-.39,3-.7,4.52-1a.32.32,0,0,1,.34.11l1.59,2c.06.07.18.14.13.25s-.18.08-.28.09a30.18,30.18,0,0,0-7.48,1.94A7,7,0,0,0,7.7,58.45a1.56,1.56,0,0,0,0,2.56,6.27,6.27,0,0,0,2,1.2,26.06,26.06,0,0,0,5.75,1.51,58.37,58.37,0,0,0,6.86.68C23.85,64.47,25.43,64.53,27.68,64.47Z" style="fill:#27e0ee"/></g></g></svg>