<svg xmlns="http://www.w3.org/2000/svg" viewBox="0 0 321.62 350.44"><g style="isolation:isolate"><g id="a493acf1-9975-4a55-950d-885beddbd354" data-name="Capa 2"><g id="b46f4710-89b5-4f9c-a0ba-bb62a47bf1e1" data-name="Capa 1"><g style="mix-blend-mode:screen"><path d="M163.85,308.86c-74,0-134.19-60.2-134.19-134.19S89.86,40.48,163.85,40.48,298,100.67,298,174.67,237.85,308.86,163.85,308.86Zm0-249.09a114.9,114.9,0,1,0,114.9,114.9A115,115,0,0,0,163.85,59.77Z" style="fill:#004ee3"/></g><g style="mix-blend-mode:screen"><path d="M241.31,240.64,234,234.38A92.11,92.11,0,0,0,178.11,83.67l1.49-9.53a101.76,101.76,0,0,1,61.71,166.5Z" style="fill:#004ee3"/></g><g style="mix-blend-mode:screen"><path d="M179.26,280.13,176.49,261a86.77,86.77,0,0,0,21.56-6l7.56,17.75A106.17,106.17,0,0,1,179.26,280.13Z" style="fill:#004ee3"/></g><g style="mix-blend-mode:screen"><path d="M148.8,275.3a101.25,101.25,0,0,1-72.68-49.08l8.31-4.9a91.68,91.68,0,0,0,65.78,44.44Z" style="fill:#004ee3"/></g><g style="mix-blend-mode:screen"><path d="M62.46,207.56A106.72,106.72,0,0,1,126.15,75L133,93a87.39,87.39,0,0,0-52.16,108.6Z" style="fill:#004ee3"/></g><g style="mix-blend-mode:screen"><path d="M242.55,161.67a80.27,80.27,0,0,0-40.84-57.21l18.35-33.95a119.09,119.09,0,0,1,60.57,84.93Z" style="fill:#004ee3"/></g><g style="mix-blend-mode:screen"><path d="M163.85,293a118.11,118.11,0,0,1-37.45-6.06l12.2-36.6a79.88,79.88,0,0,0,102.67-56.45l37.46,9.27A118.07,118.07,0,0,1,163.85,293Z" style="fill:#004ee3"/></g><g style="mix-blend-mode:screen"><path d="M87.57,265.14a118.37,118.37,0,0,1,17-192.88l19.37,33.38a79.77,79.77,0,0,0-11.43,130Z" style="fill:#004ee3"/></g><g style="opacity:0.61;mix-blend-mode:screen"><path d="M234.3,111.32a94.46,94.46,0,0,0-59.68-30.79L183.68,0A175.45,175.45,0,0,1,294.53,57.1Z" style="fill:#004ee3"/></g><g style="mix-blend-mode:screen"><path d="M274.48,139.79a115.57,115.57,0,0,0-11.62-25.54l32.92-20.14a153.72,153.72,0,0,1,15.51,34.09Z" style="fill:#004ee3"/></g><g style="mix-blend-mode:screen"><path d="M269.66,287.32,243.24,259.2a114.86,114.86,0,0,0,36.58-84.53A117.84,117.84,0,0,0,278,153.91l38-6.85a154.7,154.7,0,0,1-46.28,140.26Z" style="fill:#004ee3"/></g><g style="mix-blend-mode:screen"><path d="M163.85,350.44A175.81,175.81,0,0,1,0,238.4L75.52,209a94.19,94.19,0,0,0,88.33,60.4,96.5,96.5,0,0,0,15.51-1.26l13.13,80A177.81,177.81,0,0,1,163.85,350.44Z" style="fill:#004ee3"/></g><g style="mix-blend-mode:screen"><path d="M10.32,192.55a156.69,156.69,0,0,1-1-17.88,154.51,154.51,0,0,1,7.46-47.57L53.48,139a115.9,115.9,0,0,0-5.59,35.7,118.12,118.12,0,0,0,.77,13.45Z" style="fill:#004ee3"/></g><g style="mix-blend-mode:screen"><path d="M74.11,101.22,44.26,76.76a154.25,154.25,0,0,1,46-38l18.4,33.91A116,116,0,0,0,74.11,101.22Z" style="fill:#004ee3"/></g><g style="mix-blend-mode:screen"><path d="M88.45,180.22c0-.49-.07-1-.1-1.47l2.89-.15.09,1.41Z" style="fill:#004ee3"/><path d="M91.16,172.73l-2.89-.08c0-1,.07-2,.14-3.05l2.89.19C91.23,170.77,91.19,171.74,91.16,172.73Zm.76-8.78-2.86-.42c.15-1,.32-2,.51-3l2.84.53C92.23,162,92.07,163,91.92,164Zm1.82-8.62-2.8-.76c.28-1,.57-2,.87-2.93l2.76.88C94.27,153.45,94,154.39,93.74,155.33ZM96.58,147l-2.67-1.1c.39-.94.79-1.87,1.22-2.8l2.63,1.21C97.35,145.2,97,146.1,96.58,147Zm3.84-7.92-2.52-1.41c.5-.89,1-1.77,1.55-2.64l2.46,1.52C101.4,137.39,100.9,138.23,100.42,139.08Zm4.77-7.39L102.86,130c.6-.82,1.22-1.63,1.86-2.42l2.26,1.8C106.37,130.12,105.77,130.9,105.19,131.69Zm5.63-6.77-2.11-2q1-1.11,2.13-2.19l2,2.07C112.17,123.5,111.49,124.2,110.82,124.92Zm6.4-6-1.86-2.22c.78-.65,1.57-1.29,2.38-1.91l1.76,2.3C118.73,117.63,118,118.25,117.22,118.87Z" style="fill:#004ee3"/><path d="M124.29,113.65l-1.58-2.43,1.25-.79,1.53,2.45Z" style="fill:#004ee3"/></g><g style="mix-blend-mode:screen"><path d="M85.38,209.26l-.44-1,21.3-9.07.33.75Z" style="fill:#004ee3"/><path d="M82.34,201.33q-.37-1.17-.72-2.34l22.19-6.58c.18.58.35,1.15.54,1.72Zm-2.51-9.52c-.16-.8-.31-1.61-.46-2.42l22.82-3.95c.1.59.21,1.18.33,1.76Z" style="fill:#004ee3"/><path d="M78.43,182.06l-.09-1.1,23.09-1.68.07.82Z" style="fill:#004ee3"/></g><g style="mix-blend-mode:screen"><path d="M176.76,249.18l-.49-2.85,1.4-.26.54,2.84C177.73,249,177.25,249.09,176.76,249.18Z" style="fill:#004ee3"/><path d="M162.7,250.27c-.94,0-1.88-.05-2.82-.1l.15-2.89c.9.05,1.81.08,2.72.09Zm5.65-.13-.17-2.88c.91-.06,1.81-.13,2.71-.21l.28,2.88Q169.76,250.07,168.35,250.14Zm-14.09-.47c-.94-.12-1.87-.25-2.79-.4l.47-2.86c.89.15,1.78.28,2.68.39Zm-8.33-1.53c-.92-.22-1.83-.46-2.74-.72l.79-2.79c.87.25,1.75.48,2.63.7Zm-8.11-2.47c-.89-.32-1.76-.66-2.64-1l1.1-2.68c.84.35,1.68.67,2.54,1ZM130,242.31c-.84-.42-1.68-.86-2.5-1.31l1.39-2.54c.79.44,1.6.86,2.41,1.27Zm-7.35-4.21c-.79-.51-1.57-1-2.34-1.58l1.67-2.37c.74.52,1.49,1,2.25,1.52Zm-6.83-5c-.73-.59-1.44-1.21-2.15-1.83l1.92-2.17c.68.61,1.37,1.19,2.07,1.77Zm-6.23-5.73c-.66-.68-1.3-1.36-1.93-2.06l2.15-1.94c.6.67,1.22,1.33,1.85,2ZM104.08,221c-.58-.74-1.14-1.5-1.69-2.26l2.35-1.69c.53.73,1.07,1.46,1.62,2.17Zm-4.81-7c-.49-.8-1-1.61-1.43-2.44l2.53-1.41c.44.79.9,1.57,1.37,2.34Z" style="fill:#004ee3"/><path d="M95.26,206.51c-.21-.44-.41-.89-.61-1.34L97.3,204c.19.44.38.87.58,1.29Z" style="fill:#004ee3"/></g><g style="mix-blend-mode:screen"><path d="M217.36,241.66l-14.45-18.09.63-.51L218.23,241C218,241.19,217.65,241.43,217.36,241.66Z" style="fill:#004ee3"/><path d="M187.42,257.12l-6.36-22.26,1.49-.44,6.89,22.1C188.77,256.73,188.1,256.93,187.42,257.12Zm8-2.73-8.53-21.52,1.43-.59,9.07,21.31Zm7.72-3.51-10.62-20.57,1.36-.73L205,249.88C204.42,250.22,203.79,250.55,203.16,250.88Zm7.34-4.26L197.88,227.2c.44-.28.87-.57,1.3-.86l13.08,19.1C211.68,245.84,211.09,246.23,210.5,246.62Z" style="fill:#004ee3"/><path d="M180.13,258.86l-4.38-22.74.8-.16,4.67,22.68Z" style="fill:#004ee3"/></g><g style="mix-blend-mode:screen"><path d="M191.76,107.5l-1.31-.53,1.06-2.7,1.37.56Z" style="fill:#004ee3"/><path d="M217.24,228.21l-2-2.05c.66-.66,1.31-1.33,1.94-2l2.12,2C218.6,226.82,217.93,227.52,217.24,228.21Zm5.82-6.51-2.27-1.8c.58-.73,1.15-1.48,1.7-2.23l2.34,1.71C224.25,220.17,223.66,220.94,223.06,221.7Zm5-7.14L225.63,213q.75-1.18,1.44-2.4l2.51,1.43C229.1,212.9,228.6,213.74,228.09,214.56Zm4.18-7.67-2.62-1.23c.4-.84.78-1.7,1.15-2.56l2.66,1.14C233.08,205.13,232.68,206,232.27,206.89Zm3.26-8.1-2.74-.92q.45-1.34.84-2.67l2.78.81C236.13,196.94,235.84,197.87,235.53,198.79Zm2.3-8.43-2.83-.6c.19-.91.37-1.83.52-2.75l2.86.49C238.21,188.46,238,189.41,237.83,190.36Zm1.31-8.64-2.88-.26c.08-.93.15-1.86.2-2.8l2.89.16C239.3,179.79,239.23,180.76,239.14,181.72Zm-2.59-8.66c0-.93-.06-1.87-.11-2.8l2.89-.17c0,1,.09,1.94.11,2.91Zm-.66-8.37c-.13-.93-.27-1.85-.43-2.76l2.85-.51c.16,1,.31,1.91.45,2.88Zm-1.62-8.23q-.35-1.36-.75-2.7l2.77-.83c.28.93.54,1.86.78,2.8Zm-2.56-8c-.34-.87-.69-1.73-1.06-2.59l2.66-1.14c.38.89.75,1.78,1.1,2.69Zm-3.48-7.64c-.43-.82-.88-1.64-1.35-2.45l2.51-1.44q.72,1.26,1.41,2.55Zm-4.33-7.18q-.79-1.16-1.62-2.28l2.32-1.73c.58.78,1.14,1.57,1.69,2.37ZM218.77,127c-.61-.7-1.24-1.39-1.88-2.08l2.11-2q1,1,1.95,2.16Zm-5.86-6c-.69-.63-1.39-1.25-2.1-1.85l1.87-2.21c.74.63,1.47,1.27,2.18,1.93Zm-6.52-5.3c-.75-.55-1.52-1.08-2.3-1.6l1.61-2.41c.81.54,1.61,1.1,2.39,1.66Zm-7.07-4.52c-.82-.45-1.64-.9-2.47-1.32l1.31-2.58c.87.44,1.72.9,2.57,1.38Z" style="fill:#004ee3"/><path d="M211.8,233.13,210,230.89l1.09-.91,1.88,2.2Z" style="fill:#004ee3"/></g><g style="mix-blend-mode:screen"><path d="M130.84,121.48,118.6,101.83l1-.58,12,19.8Z" style="fill:#004ee3"/><path d="M135.77,118.72,125.37,98l2-1,9.87,21C136.74,118.24,136.25,118.47,135.77,118.72Zm5.91-2.6-8.2-21.65c.69-.26,1.38-.52,2.08-.76l7.64,21.86C142.69,115.74,142.19,115.93,141.68,116.12Zm39.69-1.56-1.56-.43,5.89-22.39,2.14.59Zm-33.54-.41-5.91-22.39c.71-.19,1.43-.37,2.15-.54l5.32,22.54C148.87,113.88,148.34,114,147.83,114.15Zm27.26-1.07-1.59-.26L177,89.93l2.19.37Zm-21-.25L150.59,90c.72-.11,1.45-.22,2.18-.31l3,23Zm14.54-.57-1.62-.1L168.22,89c.74,0,1.47.08,2.21.14Zm-8.1-.09L159.39,89c.73,0,1.46-.06,2.2-.08l.61,23.14Z" style="fill:#004ee3"/><path d="M186.74,116.39l-.76-.29,8.19-21.65,1.05.4Z" style="fill:#004ee3"/></g><g style="mix-blend-mode:screen"><path d="M163.85,238.71a64,64,0,1,1,64-64A64.11,64.11,0,0,1,163.85,238.71Zm0-117.6a53.56,53.56,0,1,0,53.56,53.56A53.62,53.62,0,0,0,163.85,121.11Z" style="fill:#004ee3"/></g><g style="mix-blend-mode:screen"><path d="M296.81,93.33a156,156,0,0,0-184.44-65.8l-.64-1.82A157.82,157.82,0,0,1,298.46,92.32Z" style="fill:#004ee3"/></g><g style="mix-blend-mode:screen"><path d="M194.37,329.49,194,327.6c72.83-14.28,125.7-78.6,125.7-152.93a157.61,157.61,0,0,0-2.13-25.81l1.9-.32a159.21,159.21,0,0,1,2.15,26.13C321.62,249.93,268.11,315,194.37,329.49Z" style="fill:#004ee3"/></g><g style="mix-blend-mode:screen"><path d="M134.86,329.78c-53-9.85-98.25-47.25-118-97.6l1.8-.7c19.48,49.73,64.13,86.67,116.52,96.4Z" style="fill:#004ee3"/></g><g style="mix-blend-mode:screen"><path d="M8.84,158.45l-1.91-.19a157,157,0,0,1,71.17-116l1.05,1.62A155.12,155.12,0,0,0,8.84,158.45Z" style="fill:#004ee3"/></g><g style="mix-blend-mode:screen"><path d="M163.85,223.81A49.15,49.15,0,1,1,213,174.67,49.2,49.2,0,0,1,163.85,223.81Zm0-94.69a45.55,45.55,0,1,0,45.55,45.55A45.6,45.6,0,0,0,163.85,129.12Z" style="fill:#004ee3"/></g><g style="mix-blend-mode:screen"><path d="M112.25,62,99.38,33.93a155.14,155.14,0,0,1,120.93-3.41L209.05,59.26A124.29,124.29,0,0,0,112.25,62Z" style="fill:#004ee3"/></g><g style="mix-blend-mode:screen"><path d="M285.53,117.23a134.42,134.42,0,0,0-28.32-39.4l6.7-7a144.18,144.18,0,0,1,30.34,42.23Z" style="fill:#004ee3"/></g><g style="mix-blend-mode:screen"><path d="M307.86,181.37l-9.64-.44c.1-2.07.15-4.18.15-6.26a135.34,135.34,0,0,0-3.82-32l9.37-2.28A144.49,144.49,0,0,1,308,174.67C308,176.9,308,179.15,307.86,181.37Z" style="fill:#004ee3"/></g><g style="mix-blend-mode:screen"><path d="M163.85,329.44c-1.77,0-3.57,0-5.35-.09l1.05-30.85c1.43,0,2.87.07,4.3.07a124,124,0,0,0,113.48-74.08l28.26,12.43A154.89,154.89,0,0,1,163.85,329.44Z" style="fill:#004ee3"/></g><g style="mix-blend-mode:screen"><path d="M59.6,272.13A142.72,142.72,0,0,1,61,75.75l4.86,4.68a136,136,0,0,0-1.31,187.09Z" style="fill:#004ee3"/></g><g style="mix-blend-mode:screen"><path d="M227.55,249.86l-21.18-24.11,1.31-1.16a66.45,66.45,0,0,0-17.4-110.9l-1.6-.69,12.78-29.44,1.61.69a98.56,98.56,0,0,1,25.79,164.46Zm-16.27-23.81,16.58,18.87A95.06,95.06,0,0,0,203.27,88.17l-10,23a69.94,69.94,0,0,1,18,114.84Z" style="fill:#004ee3"/></g><g style="mix-blend-mode:screen"><path d="M163.85,272.61A97.59,97.59,0,0,1,76.54,219.1l-.52-1L103.57,204l.53,1a66.78,66.78,0,0,0,59.75,36.63,68.41,68.41,0,0,0,10.24-.77l1.15-.18,4.68,30.58-1.15.17A98.93,98.93,0,0,1,163.85,272.61Zm-84.7-53.53a95.27,95.27,0,0,0,84.7,51.2,96.88,96.88,0,0,0,13.42-.93l-4-26a70.72,70.72,0,0,1-9.44.63,69.11,69.11,0,0,1-61.29-36.87Z" style="fill:#004ee3"/></g><g style="mix-blend-mode:screen"><path d="M96.83,175.59l-30.93-.1v-1.17a98.3,98.3,0,0,1,40.44-78.95l.94-.68,18.18,25-1,.69a67.29,67.29,0,0,0-27.68,54Zm-28.58-2.42,26.27.09a69.67,69.67,0,0,1,27.7-54L106.78,98A96,96,0,0,0,68.25,173.17Z" style="fill:#004ee3"/></g><path d="M163.85,212.64a37.64,37.64,0,0,1-22.78-7.59l5.68-7.55a28.53,28.53,0,0,0,45.63-22.83,29.19,29.19,0,0,0-.15-3l9.4-1c.13,1.29.2,2.61.2,3.92A38,38,0,0,1,163.85,212.64Z" style="fill:#004ee3;mix-blend-mode:screen"/><g style="mix-blend-mode:screen"><path d="M135.9,175.05,125.29,175v-.59a38.55,38.55,0,0,1,68.12-24.47l.38.44-8.14,6.82-.37-.45a27.95,27.95,0,0,0-49.38,17.74Zm-9.43-1.23,8.28.06a29.12,29.12,0,0,1,51.05-18.34l6.35-5.32a37.39,37.39,0,0,0-65.68,23.6Z" style="fill:#004ee3"/></g><g style="mix-blend-mode:screen"><path d="M295.48,170.12l0-.48c-2.33-62.29-48.63-114.83-110.09-124.93l-.47-.08,2.47-15.06.48.08A147,147,0,0,1,310.72,169.07l0,.48ZM186,43.84c61.51,10.33,107.83,62.9,110.4,125.28l13.33-.5A146,146,0,0,0,188.17,30.68Z" style="fill:#004ee3"/></g><g style="mix-blend-mode:screen"><path d="M163.85,321.64c-81,0-147-65.93-147-147a147,147,0,0,1,91.24-136l.45-.18,5.79,14.12-.45.19A131.3,131.3,0,0,0,32.15,174.67c0,72.62,59.08,131.7,131.7,131.7A132.45,132.45,0,0,0,277,242.08l.25-.41,13.11,7.82-.25.42a146.89,146.89,0,0,1-126.28,71.73ZM108,39.71a146.05,146.05,0,0,0-90.19,135c0,80.5,65.5,146,146,146a145.92,145.92,0,0,0,125.2-70.85L277.6,243a133.43,133.43,0,0,1-113.75,64.35c-73.15,0-132.67-59.52-132.67-132.67A132.26,132.26,0,0,1,113.1,52.05Z" style="fill:#004ee3"/></g></g></g></g></svg>