<svg xmlns="http://www.w3.org/2000/svg" xmlns:xlink="http://www.w3.org/1999/xlink" viewBox="0 0 376.63 565.9"><defs><linearGradient id="abfac389-5075-4505-9875-0f7f87db87ff" x1="390.07" y1="278.97" x2="-43.37" y2="278.97" gradientUnits="userSpaceOnUse"><stop offset="0.59" stop-color="#fff"/><stop offset="0.64" stop-color="#d0d0d0" stop-opacity="0.82"/><stop offset="0.69" stop-color="#999" stop-opacity="0.6"/><stop offset="0.74" stop-color="#6a6a6a" stop-opacity="0.42"/><stop offset="0.8" stop-color="#444" stop-opacity="0.27"/><stop offset="0.85" stop-color="#262626" stop-opacity="0.15"/><stop offset="0.9" stop-color="#111" stop-opacity="0.07"/><stop offset="0.95" stop-color="#040404" stop-opacity="0.02"/><stop offset="1" stop-opacity="0"/></linearGradient><mask id="abf146e7-c7c5-4994-b92e-3dabb08731a5" x="-43.37" y="-32.42" width="433.44" height="622.79" maskUnits="userSpaceOnUse"><rect x="-43.37" y="-32.42" width="433.44" height="622.79" style="fill:url(#abfac389-5075-4505-9875-0f7f87db87ff)"/></mask><linearGradient id="a4d05d25-7e7f-41f8-818d-34f2d4b27b90" x1="1225.59" y1="849.35" x2="1791.48" y2="849.35" gradientTransform="translate(968.62 -1266.99) rotate(87.39)" gradientUnits="userSpaceOnUse"><stop offset="0" stop-color="aqua"/><stop offset="1" stop-color="#00ff74"/></linearGradient></defs><g id="a28b9910-8614-4695-acff-4de6cf56b709" data-name="Capa 2"><g id="f45f7311-00ea-4c78-86fd-fd40f09473de" data-name="Capa 1"><g style="mask:url(#abf146e7-c7c5-4994-b92e-3dabb08731a5)"><path d="M2.63,84A218.21,218.21,0,0,1,83.72,64.39c120.71-5.5,223,87.9,228.52,208.61s-87.9,223-208.61,228.51a218,218,0,0,1-91.37-15.44q.59,34.12,1.13,68.25a282.51,282.51,0,0,0,93.16,11.28c156.1-7.11,276.89-139.42,269.78-295.52S236.91-6.81,80.81.3A282.73,282.73,0,0,0,0,15.91Q1.41,49.93,2.63,84Z" style="fill:url(#a4d05d25-7e7f-41f8-818d-34f2d4b27b90)"/></g></g></g></svg>